M48
;DRILL file {KiCad (5.0.1)-3} date 11/10/2018 5:24:05 PM
;FORMAT={-:-/ absolute / inch / decimal}
FMAT,2
INCH,TZ
T1C0.0130
T2C0.0150
T3C0.0197
T4C0.0315
T5C0.0400
T6C0.0433
T7C0.0500
T8C0.1260
%
G90
G05
M72
T1
X6.775Y-5.675
X7.1386Y-5.0755
X7.275Y-5.5
X7.275Y-5.7
X7.2798Y-5.0048
X7.2798Y-5.3798
X7.2915Y-4.9
X7.3Y-5.325
X7.3426Y-5.6394
X7.375Y-5.725
X8.525Y-6.075
X8.625Y-6.0905
X8.85Y-3.5815
X8.85Y-4.0815
X8.85Y-4.5815
X8.85Y-5.0815
X8.85Y-5.5815
X8.875Y-3.475
X8.875Y-3.6593
X8.875Y-3.975
X8.875Y-4.1593
X8.875Y-4.5
X8.875Y-4.6593
X8.875Y-4.975
X8.875Y-5.1593
X8.875Y-5.475
X8.875Y-5.6593
X8.8923Y-6.1245
X9.25Y-3.45
X9.25Y-3.5
X9.25Y-3.95
X9.25Y-4.
X9.25Y-4.45
X9.25Y-4.5
X9.25Y-4.95
X9.25Y-5.
X9.25Y-5.45
X9.25Y-5.5
X9.25Y-5.95
X9.25Y-6.
X9.375Y-3.525
X9.375Y-3.6065
X9.375Y-4.025
X9.375Y-4.1065
X9.375Y-4.525
X9.375Y-4.6065
X9.375Y-5.025
X9.375Y-5.1065
X9.375Y-5.525
X9.375Y-5.6065
T2
X6.85Y-4.725
X8.65Y-4.625
T3
X6.5805Y-3.425
X6.6082Y-3.3582
X6.6082Y-3.4918
X6.675Y-3.3305
X6.675Y-3.5195
X6.7418Y-3.3582
X6.7418Y-3.4918
X6.7695Y-3.425
X6.8555Y-5.95
X6.8832Y-5.8832
X6.8832Y-6.0168
X6.95Y-5.8555
X6.95Y-6.0445
X7.0168Y-5.8832
X7.0168Y-6.0168
X7.0445Y-5.95
T4
X9.45Y-4.85
X9.45Y-5.15
X9.55Y-4.85
X9.55Y-5.15
X9.65Y-4.85
X9.65Y-5.15
X9.75Y-4.85
X9.75Y-5.15
X8.95Y-5.85
X8.95Y-6.15
X9.05Y-5.85
X9.05Y-6.15
X9.15Y-5.85
X9.15Y-6.15
X9.25Y-5.85
X9.25Y-6.15
X9.45Y-5.35
X9.45Y-5.65
X9.55Y-5.35
X9.55Y-5.65
X9.65Y-5.35
X9.65Y-5.65
X9.75Y-5.35
X9.75Y-5.65
X8.95Y-3.35
X8.95Y-3.65
X9.05Y-3.35
X9.05Y-3.65
X9.15Y-3.35
X9.15Y-3.65
X9.25Y-3.35
X9.25Y-3.65
X8.95Y-4.85
X8.95Y-5.15
X9.05Y-4.85
X9.05Y-5.15
X9.15Y-4.85
X9.15Y-5.15
X9.25Y-4.85
X9.25Y-5.15
X9.45Y-5.85
X9.45Y-6.15
X9.55Y-5.85
X9.55Y-6.15
X9.65Y-5.85
X9.65Y-6.15
X9.75Y-5.85
X9.75Y-6.15
X9.45Y-3.85
X9.45Y-4.15
X9.55Y-3.85
X9.55Y-4.15
X9.65Y-3.85
X9.65Y-4.15
X9.75Y-3.85
X9.75Y-4.15
X8.95Y-5.35
X8.95Y-5.65
X9.05Y-5.35
X9.05Y-5.65
X9.15Y-5.35
X9.15Y-5.65
X9.25Y-5.35
X9.25Y-5.65
X9.45Y-4.35
X9.45Y-4.65
X9.55Y-4.35
X9.55Y-4.65
X9.65Y-4.35
X9.65Y-4.65
X9.75Y-4.35
X9.75Y-4.65
X8.95Y-3.85
X8.95Y-4.15
X9.05Y-3.85
X9.05Y-4.15
X9.15Y-3.85
X9.15Y-4.15
X9.25Y-3.85
X9.25Y-4.15
X9.45Y-3.35
X9.45Y-3.65
X9.55Y-3.35
X9.55Y-3.65
X9.65Y-3.35
X9.65Y-3.65
X9.75Y-3.35
X9.75Y-3.65
X8.95Y-4.35
X8.95Y-4.65
X9.05Y-4.35
X9.05Y-4.65
X9.15Y-4.35
X9.15Y-4.65
X9.25Y-4.35
X9.25Y-4.65
T5
X10.Y-4.85
X10.Y-4.95
X10.Y-5.05
X10.Y-5.15
X10.Y-3.85
X10.Y-3.95
X10.Y-4.05
X10.Y-4.15
X10.Y-5.85
X10.Y-5.95
X10.Y-6.05
X10.Y-6.15
X10.Y-5.35
X10.Y-5.45
X10.Y-5.55
X10.Y-5.65
X10.Y-4.35
X10.Y-4.45
X10.Y-4.55
X10.Y-4.65
X10.Y-3.35
X10.Y-3.45
X10.Y-3.55
X10.Y-3.65
T6
X6.6Y-4.85
X6.6Y-4.95
X6.6Y-5.05
X6.6Y-5.15
X6.6Y-5.25
X6.6Y-5.35
X6.6Y-5.45
X6.6Y-5.55
X6.6Y-5.65
X6.6Y-5.75
X6.6Y-5.85
X6.6Y-5.95
X6.6Y-6.05
X6.6Y-6.15
X6.7Y-4.85
X6.7Y-5.65
X6.7Y-5.75
X6.7Y-5.85
X6.7Y-6.05
X6.8Y-4.85
X6.9Y-4.85
X7.Y-4.85
X7.1Y-4.85
X7.2Y-4.85
X7.2Y-4.95
X7.2Y-5.05
X7.2Y-5.15
X7.2Y-5.25
X7.2Y-5.35
X7.2Y-5.45
X7.2Y-5.55
X7.2Y-5.65
X7.2Y-5.75
X7.2Y-5.85
X7.2Y-5.95
X7.2Y-6.05
X7.2Y-6.15
T7
X7.55Y-6.
X7.95Y-6.
X8.45Y-6.
X8.65Y-6.
X7.55Y-5.
X7.95Y-5.
X8.45Y-5.
X8.65Y-5.
X7.55Y-4.5
X7.95Y-4.5
X8.45Y-4.5
X8.65Y-4.5
X7.55Y-3.5
X7.95Y-3.5
X8.45Y-3.5
X8.65Y-3.5
X7.55Y-5.5
X7.95Y-5.5
X8.45Y-5.5
X8.65Y-5.5
X7.55Y-4.
X7.95Y-4.
X8.45Y-4.
X8.65Y-4.
T8
X6.675Y-3.425
X6.95Y-5.95
T0
M30
