G04 #@! TF.GenerationSoftware,KiCad,Pcbnew,(5.0.1)-3*
G04 #@! TF.CreationDate,2018-11-10T17:24:08-07:00*
G04 #@! TF.ProjectId,oMIDItone Board,6F4D494449746F6E6520426F6172642E,rev?*
G04 #@! TF.SameCoordinates,Original*
G04 #@! TF.FileFunction,Legend,Bot*
G04 #@! TF.FilePolarity,Positive*
%FSLAX46Y46*%
G04 Gerber Fmt 4.6, Leading zero omitted, Abs format (unit mm)*
G04 Created by KiCad (PCBNEW (5.0.1)-3) date 11/10/2018 5:24:08 PM*
%MOMM*%
%LPD*%
G01*
G04 APERTURE LIST*
%ADD10C,0.300000*%
G04 APERTURE END LIST*
D10*
X171478571Y-110933571D02*
X169978571Y-110933571D01*
X171478571Y-110076428D02*
X170621428Y-110719285D01*
X169978571Y-110076428D02*
X170835714Y-110933571D01*
X171478571Y-109433571D02*
X170478571Y-109433571D01*
X169978571Y-109433571D02*
X170050000Y-109505000D01*
X170121428Y-109433571D01*
X170050000Y-109362142D01*
X169978571Y-109433571D01*
X170121428Y-109433571D01*
X170478571Y-108862142D02*
X171478571Y-108505000D01*
X170478571Y-108147857D02*
X171478571Y-108505000D01*
X171835714Y-108647857D01*
X171907142Y-108719285D01*
X171978571Y-108862142D01*
X171478571Y-107362142D02*
X171407142Y-107505000D01*
X171335714Y-107576428D01*
X171192857Y-107647857D01*
X170764285Y-107647857D01*
X170621428Y-107576428D01*
X170550000Y-107505000D01*
X170478571Y-107362142D01*
X170478571Y-107147857D01*
X170550000Y-107005000D01*
X170621428Y-106933571D01*
X170764285Y-106862142D01*
X171192857Y-106862142D01*
X171335714Y-106933571D01*
X171407142Y-107005000D01*
X171478571Y-107147857D01*
X171478571Y-107362142D01*
X171407142Y-106290714D02*
X171478571Y-106147857D01*
X171478571Y-105862142D01*
X171407142Y-105719285D01*
X171264285Y-105647857D01*
X171192857Y-105647857D01*
X171050000Y-105719285D01*
X170978571Y-105862142D01*
X170978571Y-106076428D01*
X170907142Y-106219285D01*
X170764285Y-106290714D01*
X170692857Y-106290714D01*
X170550000Y-106219285D01*
X170478571Y-106076428D01*
X170478571Y-105862142D01*
X170550000Y-105719285D01*
X171478571Y-105005000D02*
X169978571Y-105005000D01*
X171478571Y-104362142D02*
X170692857Y-104362142D01*
X170550000Y-104433571D01*
X170478571Y-104576428D01*
X170478571Y-104790714D01*
X170550000Y-104933571D01*
X170621428Y-105005000D01*
X171478571Y-103647857D02*
X170478571Y-103647857D01*
X169978571Y-103647857D02*
X170050000Y-103719285D01*
X170121428Y-103647857D01*
X170050000Y-103576428D01*
X169978571Y-103647857D01*
X170121428Y-103647857D01*
X170478571Y-102290714D02*
X171692857Y-102290714D01*
X171835714Y-102362142D01*
X171907142Y-102433571D01*
X171978571Y-102576428D01*
X171978571Y-102790714D01*
X171907142Y-102933571D01*
X171407142Y-102290714D02*
X171478571Y-102433571D01*
X171478571Y-102719285D01*
X171407142Y-102862142D01*
X171335714Y-102933571D01*
X171192857Y-103005000D01*
X170764285Y-103005000D01*
X170621428Y-102933571D01*
X170550000Y-102862142D01*
X170478571Y-102719285D01*
X170478571Y-102433571D01*
X170550000Y-102290714D01*
X171478571Y-100933571D02*
X170692857Y-100933571D01*
X170550000Y-101005000D01*
X170478571Y-101147857D01*
X170478571Y-101433571D01*
X170550000Y-101576428D01*
X171407142Y-100933571D02*
X171478571Y-101076428D01*
X171478571Y-101433571D01*
X171407142Y-101576428D01*
X171264285Y-101647857D01*
X171121428Y-101647857D01*
X170978571Y-101576428D01*
X170907142Y-101433571D01*
X170907142Y-101076428D01*
X170835714Y-100933571D01*
X170478571Y-100362142D02*
X171478571Y-100076428D01*
X170764285Y-99790714D01*
X171478571Y-99505000D01*
X170478571Y-99219285D01*
X171478571Y-98005000D02*
X170692857Y-98005000D01*
X170550000Y-98076428D01*
X170478571Y-98219285D01*
X170478571Y-98505000D01*
X170550000Y-98647857D01*
X171407142Y-98005000D02*
X171478571Y-98147857D01*
X171478571Y-98505000D01*
X171407142Y-98647857D01*
X171264285Y-98719285D01*
X171121428Y-98719285D01*
X170978571Y-98647857D01*
X170907142Y-98505000D01*
X170907142Y-98147857D01*
X170835714Y-98005000D01*
X169978571Y-97219285D02*
X170264285Y-97362142D01*
X171407142Y-96647857D02*
X171478571Y-96505000D01*
X171478571Y-96219285D01*
X171407142Y-96076428D01*
X171264285Y-96005000D01*
X171192857Y-96005000D01*
X171050000Y-96076428D01*
X170978571Y-96219285D01*
X170978571Y-96433571D01*
X170907142Y-96576428D01*
X170764285Y-96647857D01*
X170692857Y-96647857D01*
X170550000Y-96576428D01*
X170478571Y-96433571D01*
X170478571Y-96219285D01*
X170550000Y-96076428D01*
X174028571Y-114505000D02*
X173957142Y-114647857D01*
X173885714Y-114719285D01*
X173742857Y-114790714D01*
X173314285Y-114790714D01*
X173171428Y-114719285D01*
X173100000Y-114647857D01*
X173028571Y-114505000D01*
X173028571Y-114290714D01*
X173100000Y-114147857D01*
X173171428Y-114076428D01*
X173314285Y-114005000D01*
X173742857Y-114005000D01*
X173885714Y-114076428D01*
X173957142Y-114147857D01*
X174028571Y-114290714D01*
X174028571Y-114505000D01*
X174028571Y-113362142D02*
X172528571Y-113362142D01*
X173600000Y-112862142D01*
X172528571Y-112362142D01*
X174028571Y-112362142D01*
X174028571Y-111647857D02*
X172528571Y-111647857D01*
X174028571Y-110933571D02*
X172528571Y-110933571D01*
X172528571Y-110576428D01*
X172600000Y-110362142D01*
X172742857Y-110219285D01*
X172885714Y-110147857D01*
X173171428Y-110076428D01*
X173385714Y-110076428D01*
X173671428Y-110147857D01*
X173814285Y-110219285D01*
X173957142Y-110362142D01*
X174028571Y-110576428D01*
X174028571Y-110933571D01*
X174028571Y-109433571D02*
X172528571Y-109433571D01*
X173028571Y-108933571D02*
X173028571Y-108362142D01*
X172528571Y-108719285D02*
X173814285Y-108719285D01*
X173957142Y-108647857D01*
X174028571Y-108505000D01*
X174028571Y-108362142D01*
X174028571Y-107647857D02*
X173957142Y-107790714D01*
X173885714Y-107862142D01*
X173742857Y-107933571D01*
X173314285Y-107933571D01*
X173171428Y-107862142D01*
X173100000Y-107790714D01*
X173028571Y-107647857D01*
X173028571Y-107433571D01*
X173100000Y-107290714D01*
X173171428Y-107219285D01*
X173314285Y-107147857D01*
X173742857Y-107147857D01*
X173885714Y-107219285D01*
X173957142Y-107290714D01*
X174028571Y-107433571D01*
X174028571Y-107647857D01*
X173028571Y-106505000D02*
X174028571Y-106505000D01*
X173171428Y-106505000D02*
X173100000Y-106433571D01*
X173028571Y-106290714D01*
X173028571Y-106076428D01*
X173100000Y-105933571D01*
X173242857Y-105862142D01*
X174028571Y-105862142D01*
X173957142Y-104576428D02*
X174028571Y-104719285D01*
X174028571Y-105005000D01*
X173957142Y-105147857D01*
X173814285Y-105219285D01*
X173242857Y-105219285D01*
X173100000Y-105147857D01*
X173028571Y-105005000D01*
X173028571Y-104719285D01*
X173100000Y-104576428D01*
X173242857Y-104505000D01*
X173385714Y-104505000D01*
X173528571Y-105219285D01*
X173885714Y-101862142D02*
X173957142Y-101933571D01*
X174028571Y-102147857D01*
X174028571Y-102290714D01*
X173957142Y-102505000D01*
X173814285Y-102647857D01*
X173671428Y-102719285D01*
X173385714Y-102790714D01*
X173171428Y-102790714D01*
X172885714Y-102719285D01*
X172742857Y-102647857D01*
X172600000Y-102505000D01*
X172528571Y-102290714D01*
X172528571Y-102147857D01*
X172600000Y-101933571D01*
X172671428Y-101862142D01*
X174028571Y-101005000D02*
X173957142Y-101147857D01*
X173885714Y-101219285D01*
X173742857Y-101290714D01*
X173314285Y-101290714D01*
X173171428Y-101219285D01*
X173100000Y-101147857D01*
X173028571Y-101005000D01*
X173028571Y-100790714D01*
X173100000Y-100647857D01*
X173171428Y-100576428D01*
X173314285Y-100505000D01*
X173742857Y-100505000D01*
X173885714Y-100576428D01*
X173957142Y-100647857D01*
X174028571Y-100790714D01*
X174028571Y-101005000D01*
X173028571Y-99862142D02*
X174028571Y-99862142D01*
X173171428Y-99862142D02*
X173100000Y-99790714D01*
X173028571Y-99647857D01*
X173028571Y-99433571D01*
X173100000Y-99290714D01*
X173242857Y-99219285D01*
X174028571Y-99219285D01*
X173028571Y-98719285D02*
X173028571Y-98147857D01*
X172528571Y-98505000D02*
X173814285Y-98505000D01*
X173957142Y-98433571D01*
X174028571Y-98290714D01*
X174028571Y-98147857D01*
X174028571Y-97647857D02*
X173028571Y-97647857D01*
X173314285Y-97647857D02*
X173171428Y-97576428D01*
X173100000Y-97505000D01*
X173028571Y-97362142D01*
X173028571Y-97219285D01*
X174028571Y-96505000D02*
X173957142Y-96647857D01*
X173885714Y-96719285D01*
X173742857Y-96790714D01*
X173314285Y-96790714D01*
X173171428Y-96719285D01*
X173100000Y-96647857D01*
X173028571Y-96505000D01*
X173028571Y-96290714D01*
X173100000Y-96147857D01*
X173171428Y-96076428D01*
X173314285Y-96005000D01*
X173742857Y-96005000D01*
X173885714Y-96076428D01*
X173957142Y-96147857D01*
X174028571Y-96290714D01*
X174028571Y-96505000D01*
X174028571Y-95147857D02*
X173957142Y-95290714D01*
X173814285Y-95362142D01*
X172528571Y-95362142D01*
X174028571Y-94362142D02*
X173957142Y-94505000D01*
X173814285Y-94576428D01*
X172528571Y-94576428D01*
X173957142Y-93219285D02*
X174028571Y-93362142D01*
X174028571Y-93647857D01*
X173957142Y-93790714D01*
X173814285Y-93862142D01*
X173242857Y-93862142D01*
X173100000Y-93790714D01*
X173028571Y-93647857D01*
X173028571Y-93362142D01*
X173100000Y-93219285D01*
X173242857Y-93147857D01*
X173385714Y-93147857D01*
X173528571Y-93862142D01*
X174028571Y-92505000D02*
X173028571Y-92505000D01*
X173314285Y-92505000D02*
X173171428Y-92433571D01*
X173100000Y-92362142D01*
X173028571Y-92219285D01*
X173028571Y-92076428D01*
X176507142Y-113040714D02*
X176578571Y-112826428D01*
X176578571Y-112469285D01*
X176507142Y-112326428D01*
X176435714Y-112255000D01*
X176292857Y-112183571D01*
X176150000Y-112183571D01*
X176007142Y-112255000D01*
X175935714Y-112326428D01*
X175864285Y-112469285D01*
X175792857Y-112755000D01*
X175721428Y-112897857D01*
X175650000Y-112969285D01*
X175507142Y-113040714D01*
X175364285Y-113040714D01*
X175221428Y-112969285D01*
X175150000Y-112897857D01*
X175078571Y-112755000D01*
X175078571Y-112397857D01*
X175150000Y-112183571D01*
X175578571Y-110897857D02*
X176578571Y-110897857D01*
X175578571Y-111540714D02*
X176364285Y-111540714D01*
X176507142Y-111469285D01*
X176578571Y-111326428D01*
X176578571Y-111112142D01*
X176507142Y-110969285D01*
X176435714Y-110897857D01*
X175578571Y-110183571D02*
X177078571Y-110183571D01*
X175650000Y-110183571D02*
X175578571Y-110040714D01*
X175578571Y-109755000D01*
X175650000Y-109612142D01*
X175721428Y-109540714D01*
X175864285Y-109469285D01*
X176292857Y-109469285D01*
X176435714Y-109540714D01*
X176507142Y-109612142D01*
X176578571Y-109755000D01*
X176578571Y-110040714D01*
X176507142Y-110183571D01*
X175578571Y-108826428D02*
X177078571Y-108826428D01*
X175650000Y-108826428D02*
X175578571Y-108683571D01*
X175578571Y-108397857D01*
X175650000Y-108255000D01*
X175721428Y-108183571D01*
X175864285Y-108112142D01*
X176292857Y-108112142D01*
X176435714Y-108183571D01*
X176507142Y-108255000D01*
X176578571Y-108397857D01*
X176578571Y-108683571D01*
X176507142Y-108826428D01*
X176578571Y-107255000D02*
X176507142Y-107397857D01*
X176435714Y-107469285D01*
X176292857Y-107540714D01*
X175864285Y-107540714D01*
X175721428Y-107469285D01*
X175650000Y-107397857D01*
X175578571Y-107255000D01*
X175578571Y-107040714D01*
X175650000Y-106897857D01*
X175721428Y-106826428D01*
X175864285Y-106755000D01*
X176292857Y-106755000D01*
X176435714Y-106826428D01*
X176507142Y-106897857D01*
X176578571Y-107040714D01*
X176578571Y-107255000D01*
X176578571Y-106112142D02*
X175578571Y-106112142D01*
X175864285Y-106112142D02*
X175721428Y-106040714D01*
X175650000Y-105969285D01*
X175578571Y-105826428D01*
X175578571Y-105683571D01*
X175578571Y-105397857D02*
X175578571Y-104826428D01*
X175078571Y-105183571D02*
X176364285Y-105183571D01*
X176507142Y-105112142D01*
X176578571Y-104969285D01*
X176578571Y-104826428D01*
X176507142Y-104397857D02*
X176578571Y-104255000D01*
X176578571Y-103969285D01*
X176507142Y-103826428D01*
X176364285Y-103755000D01*
X176292857Y-103755000D01*
X176150000Y-103826428D01*
X176078571Y-103969285D01*
X176078571Y-104183571D01*
X176007142Y-104326428D01*
X175864285Y-104397857D01*
X175792857Y-104397857D01*
X175650000Y-104326428D01*
X175578571Y-104183571D01*
X175578571Y-103969285D01*
X175650000Y-103826428D01*
X175578571Y-101326428D02*
X176578571Y-101326428D01*
X175578571Y-101969285D02*
X176364285Y-101969285D01*
X176507142Y-101897857D01*
X176578571Y-101755000D01*
X176578571Y-101540714D01*
X176507142Y-101397857D01*
X176435714Y-101326428D01*
X175578571Y-100612142D02*
X177078571Y-100612142D01*
X175650000Y-100612142D02*
X175578571Y-100469285D01*
X175578571Y-100183571D01*
X175650000Y-100040714D01*
X175721428Y-99969285D01*
X175864285Y-99897857D01*
X176292857Y-99897857D01*
X176435714Y-99969285D01*
X176507142Y-100040714D01*
X176578571Y-100183571D01*
X176578571Y-100469285D01*
X176507142Y-100612142D01*
X175578571Y-98326428D02*
X175578571Y-97755000D01*
X175078571Y-98112142D02*
X176364285Y-98112142D01*
X176507142Y-98040714D01*
X176578571Y-97897857D01*
X176578571Y-97755000D01*
X176578571Y-97040714D02*
X176507142Y-97183571D01*
X176435714Y-97255000D01*
X176292857Y-97326428D01*
X175864285Y-97326428D01*
X175721428Y-97255000D01*
X175650000Y-97183571D01*
X175578571Y-97040714D01*
X175578571Y-96826428D01*
X175650000Y-96683571D01*
X175721428Y-96612142D01*
X175864285Y-96540714D01*
X176292857Y-96540714D01*
X176435714Y-96612142D01*
X176507142Y-96683571D01*
X176578571Y-96826428D01*
X176578571Y-97040714D01*
X175078571Y-94112142D02*
X175078571Y-94397857D01*
X175150000Y-94540714D01*
X175221428Y-94612142D01*
X175435714Y-94755000D01*
X175721428Y-94826428D01*
X176292857Y-94826428D01*
X176435714Y-94755000D01*
X176507142Y-94683571D01*
X176578571Y-94540714D01*
X176578571Y-94255000D01*
X176507142Y-94112142D01*
X176435714Y-94040714D01*
X176292857Y-93969285D01*
X175935714Y-93969285D01*
X175792857Y-94040714D01*
X175721428Y-94112142D01*
X175650000Y-94255000D01*
X175650000Y-94540714D01*
X175721428Y-94683571D01*
X175792857Y-94755000D01*
X175935714Y-94826428D01*
X177628571Y-109469285D02*
X177628571Y-109183571D01*
X177700000Y-109040714D01*
X177842857Y-108897857D01*
X178128571Y-108826428D01*
X178628571Y-108826428D01*
X178914285Y-108897857D01*
X179057142Y-109040714D01*
X179128571Y-109183571D01*
X179128571Y-109469285D01*
X179057142Y-109612142D01*
X178914285Y-109755000D01*
X178628571Y-109826428D01*
X178128571Y-109826428D01*
X177842857Y-109755000D01*
X177700000Y-109612142D01*
X177628571Y-109469285D01*
X178128571Y-108397857D02*
X178128571Y-107826428D01*
X177628571Y-108183571D02*
X178914285Y-108183571D01*
X179057142Y-108112142D01*
X179128571Y-107969285D01*
X179128571Y-107826428D01*
X179128571Y-106683571D02*
X178342857Y-106683571D01*
X178200000Y-106755000D01*
X178128571Y-106897857D01*
X178128571Y-107183571D01*
X178200000Y-107326428D01*
X179057142Y-106683571D02*
X179128571Y-106826428D01*
X179128571Y-107183571D01*
X179057142Y-107326428D01*
X178914285Y-107397857D01*
X178771428Y-107397857D01*
X178628571Y-107326428D01*
X178557142Y-107183571D01*
X178557142Y-106826428D01*
X178485714Y-106683571D01*
X179128571Y-105969285D02*
X178128571Y-105969285D01*
X178271428Y-105969285D02*
X178200000Y-105897857D01*
X178128571Y-105755000D01*
X178128571Y-105540714D01*
X178200000Y-105397857D01*
X178342857Y-105326428D01*
X179128571Y-105326428D01*
X178342857Y-105326428D02*
X178200000Y-105255000D01*
X178128571Y-105112142D01*
X178128571Y-104897857D01*
X178200000Y-104755000D01*
X178342857Y-104683571D01*
X179128571Y-104683571D01*
X179128571Y-103326428D02*
X178342857Y-103326428D01*
X178200000Y-103397857D01*
X178128571Y-103540714D01*
X178128571Y-103826428D01*
X178200000Y-103969285D01*
X179057142Y-103326428D02*
X179128571Y-103469285D01*
X179128571Y-103826428D01*
X179057142Y-103969285D01*
X178914285Y-104040714D01*
X178771428Y-104040714D01*
X178628571Y-103969285D01*
X178557142Y-103826428D01*
X178557142Y-103469285D01*
X178485714Y-103326428D01*
X178128571Y-102826428D02*
X178128571Y-102255000D01*
X177628571Y-102612142D02*
X178914285Y-102612142D01*
X179057142Y-102540714D01*
X179128571Y-102397857D01*
X179128571Y-102255000D01*
X179128571Y-101540714D02*
X179057142Y-101683571D01*
X178985714Y-101755000D01*
X178842857Y-101826428D01*
X178414285Y-101826428D01*
X178271428Y-101755000D01*
X178200000Y-101683571D01*
X178128571Y-101540714D01*
X178128571Y-101326428D01*
X178200000Y-101183571D01*
X178271428Y-101112142D01*
X178414285Y-101040714D01*
X178842857Y-101040714D01*
X178985714Y-101112142D01*
X179057142Y-101183571D01*
X179128571Y-101326428D01*
X179128571Y-101540714D01*
X178128571Y-100397857D02*
X179128571Y-100397857D01*
X178271428Y-100397857D02*
X178200000Y-100326428D01*
X178128571Y-100183571D01*
X178128571Y-99969285D01*
X178200000Y-99826428D01*
X178342857Y-99755000D01*
X179128571Y-99755000D01*
X179057142Y-98469285D02*
X179128571Y-98612142D01*
X179128571Y-98897857D01*
X179057142Y-99040714D01*
X178914285Y-99112142D01*
X178342857Y-99112142D01*
X178200000Y-99040714D01*
X178128571Y-98897857D01*
X178128571Y-98612142D01*
X178200000Y-98469285D01*
X178342857Y-98397857D01*
X178485714Y-98397857D01*
X178628571Y-99112142D01*
X179057142Y-97826428D02*
X179128571Y-97683571D01*
X179128571Y-97397857D01*
X179057142Y-97255000D01*
X178914285Y-97183571D01*
X178842857Y-97183571D01*
X178700000Y-97255000D01*
X178628571Y-97397857D01*
X178628571Y-97612142D01*
X178557142Y-97755000D01*
X178414285Y-97826428D01*
X178342857Y-97826428D01*
X178200000Y-97755000D01*
X178128571Y-97612142D01*
X178128571Y-97397857D01*
X178200000Y-97255000D01*
M02*
