G04 #@! TF.GenerationSoftware,KiCad,Pcbnew,(5.0.1)-3*
G04 #@! TF.CreationDate,2018-11-10T17:24:08-07:00*
G04 #@! TF.ProjectId,oMIDItone Board,6F4D494449746F6E6520426F6172642E,rev?*
G04 #@! TF.SameCoordinates,Original*
G04 #@! TF.FileFunction,Legend,Top*
G04 #@! TF.FilePolarity,Positive*
%FSLAX46Y46*%
G04 Gerber Fmt 4.6, Leading zero omitted, Abs format (unit mm)*
G04 Created by KiCad (PCBNEW (5.0.1)-3) date 11/10/2018 5:24:08 PM*
%MOMM*%
%LPD*%
G01*
G04 APERTURE LIST*
%ADD10C,0.300000*%
%ADD11C,0.120000*%
%ADD12C,0.150000*%
G04 APERTURE END LIST*
D10*
X275336428Y-114364285D02*
X275336428Y-115364285D01*
X273836428Y-114721428D01*
X275336428Y-116578571D02*
X275336428Y-116292857D01*
X275265000Y-116150000D01*
X275193571Y-116078571D01*
X274979285Y-115935714D01*
X274693571Y-115864285D01*
X274122142Y-115864285D01*
X273979285Y-115935714D01*
X273907857Y-116007142D01*
X273836428Y-116150000D01*
X273836428Y-116435714D01*
X273907857Y-116578571D01*
X273979285Y-116650000D01*
X274122142Y-116721428D01*
X274479285Y-116721428D01*
X274622142Y-116650000D01*
X274693571Y-116578571D01*
X274765000Y-116435714D01*
X274765000Y-116150000D01*
X274693571Y-116007142D01*
X274622142Y-115935714D01*
X274479285Y-115864285D01*
X273979285Y-117364285D02*
X273907857Y-117435714D01*
X273836428Y-117364285D01*
X273907857Y-117292857D01*
X273979285Y-117364285D01*
X273836428Y-117364285D01*
X275193571Y-118007142D02*
X275265000Y-118078571D01*
X275336428Y-118221428D01*
X275336428Y-118578571D01*
X275265000Y-118721428D01*
X275193571Y-118792857D01*
X275050714Y-118864285D01*
X274907857Y-118864285D01*
X274693571Y-118792857D01*
X273836428Y-117935714D01*
X273836428Y-118864285D01*
X275336428Y-119792857D02*
X275336428Y-119935714D01*
X275265000Y-120078571D01*
X275193571Y-120150000D01*
X275050714Y-120221428D01*
X274765000Y-120292857D01*
X274407857Y-120292857D01*
X274122142Y-120221428D01*
X273979285Y-120150000D01*
X273907857Y-120078571D01*
X273836428Y-119935714D01*
X273836428Y-119792857D01*
X273907857Y-119650000D01*
X273979285Y-119578571D01*
X274122142Y-119507142D01*
X274407857Y-119435714D01*
X274765000Y-119435714D01*
X275050714Y-119507142D01*
X275193571Y-119578571D01*
X275265000Y-119650000D01*
X275336428Y-119792857D01*
X275336428Y-121221428D02*
X275336428Y-121364285D01*
X275265000Y-121507142D01*
X275193571Y-121578571D01*
X275050714Y-121650000D01*
X274765000Y-121721428D01*
X274407857Y-121721428D01*
X274122142Y-121650000D01*
X273979285Y-121578571D01*
X273907857Y-121507142D01*
X273836428Y-121364285D01*
X273836428Y-121221428D01*
X273907857Y-121078571D01*
X273979285Y-121007142D01*
X274122142Y-120935714D01*
X274407857Y-120864285D01*
X274765000Y-120864285D01*
X275050714Y-120935714D01*
X275193571Y-121007142D01*
X275265000Y-121078571D01*
X275336428Y-121221428D01*
X273836428Y-123507142D02*
X274836428Y-123507142D01*
X274693571Y-123507142D02*
X274765000Y-123578571D01*
X274836428Y-123721428D01*
X274836428Y-123935714D01*
X274765000Y-124078571D01*
X274622142Y-124150000D01*
X273836428Y-124150000D01*
X274622142Y-124150000D02*
X274765000Y-124221428D01*
X274836428Y-124364285D01*
X274836428Y-124578571D01*
X274765000Y-124721428D01*
X274622142Y-124792857D01*
X273836428Y-124792857D01*
X273836428Y-125507142D02*
X274836428Y-125507142D01*
X274693571Y-125507142D02*
X274765000Y-125578571D01*
X274836428Y-125721428D01*
X274836428Y-125935714D01*
X274765000Y-126078571D01*
X274622142Y-126150000D01*
X273836428Y-126150000D01*
X274622142Y-126150000D02*
X274765000Y-126221428D01*
X274836428Y-126364285D01*
X274836428Y-126578571D01*
X274765000Y-126721428D01*
X274622142Y-126792857D01*
X273836428Y-126792857D01*
X272415000Y-82550000D02*
X272415000Y-158750000D01*
X262890000Y-82550000D02*
X273001421Y-82550000D01*
X262890000Y-158750000D02*
X273001421Y-158750000D01*
X272415000Y-158750000D02*
X271828579Y-157623496D01*
X272415000Y-158750000D02*
X273001421Y-157623496D01*
X272415000Y-82550000D02*
X271828579Y-83676504D01*
X272415000Y-82550000D02*
X273001421Y-83676504D01*
X207923571Y-70968571D02*
X208209285Y-70968571D01*
X208352142Y-70897142D01*
X208423571Y-70825714D01*
X208566428Y-70611428D01*
X208637857Y-70325714D01*
X208637857Y-69754285D01*
X208566428Y-69611428D01*
X208495000Y-69540000D01*
X208352142Y-69468571D01*
X208066428Y-69468571D01*
X207923571Y-69540000D01*
X207852142Y-69611428D01*
X207780714Y-69754285D01*
X207780714Y-70111428D01*
X207852142Y-70254285D01*
X207923571Y-70325714D01*
X208066428Y-70397142D01*
X208352142Y-70397142D01*
X208495000Y-70325714D01*
X208566428Y-70254285D01*
X208637857Y-70111428D01*
X209137857Y-69468571D02*
X210137857Y-69468571D01*
X209495000Y-70968571D01*
X210709285Y-70825714D02*
X210780714Y-70897142D01*
X210709285Y-70968571D01*
X210637857Y-70897142D01*
X210709285Y-70825714D01*
X210709285Y-70968571D01*
X211280714Y-69468571D02*
X212280714Y-69468571D01*
X211637857Y-70968571D01*
X212923571Y-70968571D02*
X213209285Y-70968571D01*
X213352142Y-70897142D01*
X213423571Y-70825714D01*
X213566428Y-70611428D01*
X213637857Y-70325714D01*
X213637857Y-69754285D01*
X213566428Y-69611428D01*
X213495000Y-69540000D01*
X213352142Y-69468571D01*
X213066428Y-69468571D01*
X212923571Y-69540000D01*
X212852142Y-69611428D01*
X212780714Y-69754285D01*
X212780714Y-70111428D01*
X212852142Y-70254285D01*
X212923571Y-70325714D01*
X213066428Y-70397142D01*
X213352142Y-70397142D01*
X213495000Y-70325714D01*
X213566428Y-70254285D01*
X213637857Y-70111428D01*
X214566428Y-69468571D02*
X214709285Y-69468571D01*
X214852142Y-69540000D01*
X214923571Y-69611428D01*
X214995000Y-69754285D01*
X215066428Y-70040000D01*
X215066428Y-70397142D01*
X214995000Y-70682857D01*
X214923571Y-70825714D01*
X214852142Y-70897142D01*
X214709285Y-70968571D01*
X214566428Y-70968571D01*
X214423571Y-70897142D01*
X214352142Y-70825714D01*
X214280714Y-70682857D01*
X214209285Y-70397142D01*
X214209285Y-70040000D01*
X214280714Y-69754285D01*
X214352142Y-69611428D01*
X214423571Y-69540000D01*
X214566428Y-69468571D01*
X216852142Y-70968571D02*
X216852142Y-69968571D01*
X216852142Y-70111428D02*
X216923571Y-70040000D01*
X217066428Y-69968571D01*
X217280714Y-69968571D01*
X217423571Y-70040000D01*
X217495000Y-70182857D01*
X217495000Y-70968571D01*
X217495000Y-70182857D02*
X217566428Y-70040000D01*
X217709285Y-69968571D01*
X217923571Y-69968571D01*
X218066428Y-70040000D01*
X218137857Y-70182857D01*
X218137857Y-70968571D01*
X218852142Y-70968571D02*
X218852142Y-69968571D01*
X218852142Y-70111428D02*
X218923571Y-70040000D01*
X219066428Y-69968571D01*
X219280714Y-69968571D01*
X219423571Y-70040000D01*
X219495000Y-70182857D01*
X219495000Y-70968571D01*
X219495000Y-70182857D02*
X219566428Y-70040000D01*
X219709285Y-69968571D01*
X219923571Y-69968571D01*
X220066428Y-70040000D01*
X220137857Y-70182857D01*
X220137857Y-70968571D01*
X165100000Y-72390000D02*
X262890000Y-72390000D01*
X165100000Y-82550000D02*
X165100000Y-71803579D01*
X262890000Y-82550000D02*
X262890000Y-71803579D01*
X262890000Y-72390000D02*
X261763496Y-72976421D01*
X262890000Y-72390000D02*
X261763496Y-71803579D01*
X165100000Y-72390000D02*
X166226504Y-72976421D01*
X165100000Y-72390000D02*
X166226504Y-71803579D01*
X171478571Y-110933571D02*
X169978571Y-110933571D01*
X171478571Y-110076428D02*
X170621428Y-110719285D01*
X169978571Y-110076428D02*
X170835714Y-110933571D01*
X171478571Y-109433571D02*
X170478571Y-109433571D01*
X169978571Y-109433571D02*
X170050000Y-109505000D01*
X170121428Y-109433571D01*
X170050000Y-109362142D01*
X169978571Y-109433571D01*
X170121428Y-109433571D01*
X170478571Y-108862142D02*
X171478571Y-108505000D01*
X170478571Y-108147857D02*
X171478571Y-108505000D01*
X171835714Y-108647857D01*
X171907142Y-108719285D01*
X171978571Y-108862142D01*
X171478571Y-107362142D02*
X171407142Y-107505000D01*
X171335714Y-107576428D01*
X171192857Y-107647857D01*
X170764285Y-107647857D01*
X170621428Y-107576428D01*
X170550000Y-107505000D01*
X170478571Y-107362142D01*
X170478571Y-107147857D01*
X170550000Y-107005000D01*
X170621428Y-106933571D01*
X170764285Y-106862142D01*
X171192857Y-106862142D01*
X171335714Y-106933571D01*
X171407142Y-107005000D01*
X171478571Y-107147857D01*
X171478571Y-107362142D01*
X171407142Y-106290714D02*
X171478571Y-106147857D01*
X171478571Y-105862142D01*
X171407142Y-105719285D01*
X171264285Y-105647857D01*
X171192857Y-105647857D01*
X171050000Y-105719285D01*
X170978571Y-105862142D01*
X170978571Y-106076428D01*
X170907142Y-106219285D01*
X170764285Y-106290714D01*
X170692857Y-106290714D01*
X170550000Y-106219285D01*
X170478571Y-106076428D01*
X170478571Y-105862142D01*
X170550000Y-105719285D01*
X171478571Y-105005000D02*
X169978571Y-105005000D01*
X171478571Y-104362142D02*
X170692857Y-104362142D01*
X170550000Y-104433571D01*
X170478571Y-104576428D01*
X170478571Y-104790714D01*
X170550000Y-104933571D01*
X170621428Y-105005000D01*
X171478571Y-103647857D02*
X170478571Y-103647857D01*
X169978571Y-103647857D02*
X170050000Y-103719285D01*
X170121428Y-103647857D01*
X170050000Y-103576428D01*
X169978571Y-103647857D01*
X170121428Y-103647857D01*
X170478571Y-102290714D02*
X171692857Y-102290714D01*
X171835714Y-102362142D01*
X171907142Y-102433571D01*
X171978571Y-102576428D01*
X171978571Y-102790714D01*
X171907142Y-102933571D01*
X171407142Y-102290714D02*
X171478571Y-102433571D01*
X171478571Y-102719285D01*
X171407142Y-102862142D01*
X171335714Y-102933571D01*
X171192857Y-103005000D01*
X170764285Y-103005000D01*
X170621428Y-102933571D01*
X170550000Y-102862142D01*
X170478571Y-102719285D01*
X170478571Y-102433571D01*
X170550000Y-102290714D01*
X171478571Y-100933571D02*
X170692857Y-100933571D01*
X170550000Y-101005000D01*
X170478571Y-101147857D01*
X170478571Y-101433571D01*
X170550000Y-101576428D01*
X171407142Y-100933571D02*
X171478571Y-101076428D01*
X171478571Y-101433571D01*
X171407142Y-101576428D01*
X171264285Y-101647857D01*
X171121428Y-101647857D01*
X170978571Y-101576428D01*
X170907142Y-101433571D01*
X170907142Y-101076428D01*
X170835714Y-100933571D01*
X170478571Y-100362142D02*
X171478571Y-100076428D01*
X170764285Y-99790714D01*
X171478571Y-99505000D01*
X170478571Y-99219285D01*
X171478571Y-98005000D02*
X170692857Y-98005000D01*
X170550000Y-98076428D01*
X170478571Y-98219285D01*
X170478571Y-98505000D01*
X170550000Y-98647857D01*
X171407142Y-98005000D02*
X171478571Y-98147857D01*
X171478571Y-98505000D01*
X171407142Y-98647857D01*
X171264285Y-98719285D01*
X171121428Y-98719285D01*
X170978571Y-98647857D01*
X170907142Y-98505000D01*
X170907142Y-98147857D01*
X170835714Y-98005000D01*
X169978571Y-97219285D02*
X170264285Y-97362142D01*
X171407142Y-96647857D02*
X171478571Y-96505000D01*
X171478571Y-96219285D01*
X171407142Y-96076428D01*
X171264285Y-96005000D01*
X171192857Y-96005000D01*
X171050000Y-96076428D01*
X170978571Y-96219285D01*
X170978571Y-96433571D01*
X170907142Y-96576428D01*
X170764285Y-96647857D01*
X170692857Y-96647857D01*
X170550000Y-96576428D01*
X170478571Y-96433571D01*
X170478571Y-96219285D01*
X170550000Y-96076428D01*
X174028571Y-114505000D02*
X173957142Y-114647857D01*
X173885714Y-114719285D01*
X173742857Y-114790714D01*
X173314285Y-114790714D01*
X173171428Y-114719285D01*
X173100000Y-114647857D01*
X173028571Y-114505000D01*
X173028571Y-114290714D01*
X173100000Y-114147857D01*
X173171428Y-114076428D01*
X173314285Y-114005000D01*
X173742857Y-114005000D01*
X173885714Y-114076428D01*
X173957142Y-114147857D01*
X174028571Y-114290714D01*
X174028571Y-114505000D01*
X174028571Y-113362142D02*
X172528571Y-113362142D01*
X173600000Y-112862142D01*
X172528571Y-112362142D01*
X174028571Y-112362142D01*
X174028571Y-111647857D02*
X172528571Y-111647857D01*
X174028571Y-110933571D02*
X172528571Y-110933571D01*
X172528571Y-110576428D01*
X172600000Y-110362142D01*
X172742857Y-110219285D01*
X172885714Y-110147857D01*
X173171428Y-110076428D01*
X173385714Y-110076428D01*
X173671428Y-110147857D01*
X173814285Y-110219285D01*
X173957142Y-110362142D01*
X174028571Y-110576428D01*
X174028571Y-110933571D01*
X174028571Y-109433571D02*
X172528571Y-109433571D01*
X173028571Y-108933571D02*
X173028571Y-108362142D01*
X172528571Y-108719285D02*
X173814285Y-108719285D01*
X173957142Y-108647857D01*
X174028571Y-108505000D01*
X174028571Y-108362142D01*
X174028571Y-107647857D02*
X173957142Y-107790714D01*
X173885714Y-107862142D01*
X173742857Y-107933571D01*
X173314285Y-107933571D01*
X173171428Y-107862142D01*
X173100000Y-107790714D01*
X173028571Y-107647857D01*
X173028571Y-107433571D01*
X173100000Y-107290714D01*
X173171428Y-107219285D01*
X173314285Y-107147857D01*
X173742857Y-107147857D01*
X173885714Y-107219285D01*
X173957142Y-107290714D01*
X174028571Y-107433571D01*
X174028571Y-107647857D01*
X173028571Y-106505000D02*
X174028571Y-106505000D01*
X173171428Y-106505000D02*
X173100000Y-106433571D01*
X173028571Y-106290714D01*
X173028571Y-106076428D01*
X173100000Y-105933571D01*
X173242857Y-105862142D01*
X174028571Y-105862142D01*
X173957142Y-104576428D02*
X174028571Y-104719285D01*
X174028571Y-105005000D01*
X173957142Y-105147857D01*
X173814285Y-105219285D01*
X173242857Y-105219285D01*
X173100000Y-105147857D01*
X173028571Y-105005000D01*
X173028571Y-104719285D01*
X173100000Y-104576428D01*
X173242857Y-104505000D01*
X173385714Y-104505000D01*
X173528571Y-105219285D01*
X173885714Y-101862142D02*
X173957142Y-101933571D01*
X174028571Y-102147857D01*
X174028571Y-102290714D01*
X173957142Y-102505000D01*
X173814285Y-102647857D01*
X173671428Y-102719285D01*
X173385714Y-102790714D01*
X173171428Y-102790714D01*
X172885714Y-102719285D01*
X172742857Y-102647857D01*
X172600000Y-102505000D01*
X172528571Y-102290714D01*
X172528571Y-102147857D01*
X172600000Y-101933571D01*
X172671428Y-101862142D01*
X174028571Y-101005000D02*
X173957142Y-101147857D01*
X173885714Y-101219285D01*
X173742857Y-101290714D01*
X173314285Y-101290714D01*
X173171428Y-101219285D01*
X173100000Y-101147857D01*
X173028571Y-101005000D01*
X173028571Y-100790714D01*
X173100000Y-100647857D01*
X173171428Y-100576428D01*
X173314285Y-100505000D01*
X173742857Y-100505000D01*
X173885714Y-100576428D01*
X173957142Y-100647857D01*
X174028571Y-100790714D01*
X174028571Y-101005000D01*
X173028571Y-99862142D02*
X174028571Y-99862142D01*
X173171428Y-99862142D02*
X173100000Y-99790714D01*
X173028571Y-99647857D01*
X173028571Y-99433571D01*
X173100000Y-99290714D01*
X173242857Y-99219285D01*
X174028571Y-99219285D01*
X173028571Y-98719285D02*
X173028571Y-98147857D01*
X172528571Y-98505000D02*
X173814285Y-98505000D01*
X173957142Y-98433571D01*
X174028571Y-98290714D01*
X174028571Y-98147857D01*
X174028571Y-97647857D02*
X173028571Y-97647857D01*
X173314285Y-97647857D02*
X173171428Y-97576428D01*
X173100000Y-97505000D01*
X173028571Y-97362142D01*
X173028571Y-97219285D01*
X174028571Y-96505000D02*
X173957142Y-96647857D01*
X173885714Y-96719285D01*
X173742857Y-96790714D01*
X173314285Y-96790714D01*
X173171428Y-96719285D01*
X173100000Y-96647857D01*
X173028571Y-96505000D01*
X173028571Y-96290714D01*
X173100000Y-96147857D01*
X173171428Y-96076428D01*
X173314285Y-96005000D01*
X173742857Y-96005000D01*
X173885714Y-96076428D01*
X173957142Y-96147857D01*
X174028571Y-96290714D01*
X174028571Y-96505000D01*
X174028571Y-95147857D02*
X173957142Y-95290714D01*
X173814285Y-95362142D01*
X172528571Y-95362142D01*
X174028571Y-94362142D02*
X173957142Y-94505000D01*
X173814285Y-94576428D01*
X172528571Y-94576428D01*
X173957142Y-93219285D02*
X174028571Y-93362142D01*
X174028571Y-93647857D01*
X173957142Y-93790714D01*
X173814285Y-93862142D01*
X173242857Y-93862142D01*
X173100000Y-93790714D01*
X173028571Y-93647857D01*
X173028571Y-93362142D01*
X173100000Y-93219285D01*
X173242857Y-93147857D01*
X173385714Y-93147857D01*
X173528571Y-93862142D01*
X174028571Y-92505000D02*
X173028571Y-92505000D01*
X173314285Y-92505000D02*
X173171428Y-92433571D01*
X173100000Y-92362142D01*
X173028571Y-92219285D01*
X173028571Y-92076428D01*
X176507142Y-113040714D02*
X176578571Y-112826428D01*
X176578571Y-112469285D01*
X176507142Y-112326428D01*
X176435714Y-112255000D01*
X176292857Y-112183571D01*
X176150000Y-112183571D01*
X176007142Y-112255000D01*
X175935714Y-112326428D01*
X175864285Y-112469285D01*
X175792857Y-112755000D01*
X175721428Y-112897857D01*
X175650000Y-112969285D01*
X175507142Y-113040714D01*
X175364285Y-113040714D01*
X175221428Y-112969285D01*
X175150000Y-112897857D01*
X175078571Y-112755000D01*
X175078571Y-112397857D01*
X175150000Y-112183571D01*
X175578571Y-110897857D02*
X176578571Y-110897857D01*
X175578571Y-111540714D02*
X176364285Y-111540714D01*
X176507142Y-111469285D01*
X176578571Y-111326428D01*
X176578571Y-111112142D01*
X176507142Y-110969285D01*
X176435714Y-110897857D01*
X175578571Y-110183571D02*
X177078571Y-110183571D01*
X175650000Y-110183571D02*
X175578571Y-110040714D01*
X175578571Y-109755000D01*
X175650000Y-109612142D01*
X175721428Y-109540714D01*
X175864285Y-109469285D01*
X176292857Y-109469285D01*
X176435714Y-109540714D01*
X176507142Y-109612142D01*
X176578571Y-109755000D01*
X176578571Y-110040714D01*
X176507142Y-110183571D01*
X175578571Y-108826428D02*
X177078571Y-108826428D01*
X175650000Y-108826428D02*
X175578571Y-108683571D01*
X175578571Y-108397857D01*
X175650000Y-108255000D01*
X175721428Y-108183571D01*
X175864285Y-108112142D01*
X176292857Y-108112142D01*
X176435714Y-108183571D01*
X176507142Y-108255000D01*
X176578571Y-108397857D01*
X176578571Y-108683571D01*
X176507142Y-108826428D01*
X176578571Y-107255000D02*
X176507142Y-107397857D01*
X176435714Y-107469285D01*
X176292857Y-107540714D01*
X175864285Y-107540714D01*
X175721428Y-107469285D01*
X175650000Y-107397857D01*
X175578571Y-107255000D01*
X175578571Y-107040714D01*
X175650000Y-106897857D01*
X175721428Y-106826428D01*
X175864285Y-106755000D01*
X176292857Y-106755000D01*
X176435714Y-106826428D01*
X176507142Y-106897857D01*
X176578571Y-107040714D01*
X176578571Y-107255000D01*
X176578571Y-106112142D02*
X175578571Y-106112142D01*
X175864285Y-106112142D02*
X175721428Y-106040714D01*
X175650000Y-105969285D01*
X175578571Y-105826428D01*
X175578571Y-105683571D01*
X175578571Y-105397857D02*
X175578571Y-104826428D01*
X175078571Y-105183571D02*
X176364285Y-105183571D01*
X176507142Y-105112142D01*
X176578571Y-104969285D01*
X176578571Y-104826428D01*
X176507142Y-104397857D02*
X176578571Y-104255000D01*
X176578571Y-103969285D01*
X176507142Y-103826428D01*
X176364285Y-103755000D01*
X176292857Y-103755000D01*
X176150000Y-103826428D01*
X176078571Y-103969285D01*
X176078571Y-104183571D01*
X176007142Y-104326428D01*
X175864285Y-104397857D01*
X175792857Y-104397857D01*
X175650000Y-104326428D01*
X175578571Y-104183571D01*
X175578571Y-103969285D01*
X175650000Y-103826428D01*
X175578571Y-101326428D02*
X176578571Y-101326428D01*
X175578571Y-101969285D02*
X176364285Y-101969285D01*
X176507142Y-101897857D01*
X176578571Y-101755000D01*
X176578571Y-101540714D01*
X176507142Y-101397857D01*
X176435714Y-101326428D01*
X175578571Y-100612142D02*
X177078571Y-100612142D01*
X175650000Y-100612142D02*
X175578571Y-100469285D01*
X175578571Y-100183571D01*
X175650000Y-100040714D01*
X175721428Y-99969285D01*
X175864285Y-99897857D01*
X176292857Y-99897857D01*
X176435714Y-99969285D01*
X176507142Y-100040714D01*
X176578571Y-100183571D01*
X176578571Y-100469285D01*
X176507142Y-100612142D01*
X175578571Y-98326428D02*
X175578571Y-97755000D01*
X175078571Y-98112142D02*
X176364285Y-98112142D01*
X176507142Y-98040714D01*
X176578571Y-97897857D01*
X176578571Y-97755000D01*
X176578571Y-97040714D02*
X176507142Y-97183571D01*
X176435714Y-97255000D01*
X176292857Y-97326428D01*
X175864285Y-97326428D01*
X175721428Y-97255000D01*
X175650000Y-97183571D01*
X175578571Y-97040714D01*
X175578571Y-96826428D01*
X175650000Y-96683571D01*
X175721428Y-96612142D01*
X175864285Y-96540714D01*
X176292857Y-96540714D01*
X176435714Y-96612142D01*
X176507142Y-96683571D01*
X176578571Y-96826428D01*
X176578571Y-97040714D01*
X175078571Y-94112142D02*
X175078571Y-94397857D01*
X175150000Y-94540714D01*
X175221428Y-94612142D01*
X175435714Y-94755000D01*
X175721428Y-94826428D01*
X176292857Y-94826428D01*
X176435714Y-94755000D01*
X176507142Y-94683571D01*
X176578571Y-94540714D01*
X176578571Y-94255000D01*
X176507142Y-94112142D01*
X176435714Y-94040714D01*
X176292857Y-93969285D01*
X175935714Y-93969285D01*
X175792857Y-94040714D01*
X175721428Y-94112142D01*
X175650000Y-94255000D01*
X175650000Y-94540714D01*
X175721428Y-94683571D01*
X175792857Y-94755000D01*
X175935714Y-94826428D01*
X177628571Y-109469285D02*
X177628571Y-109183571D01*
X177700000Y-109040714D01*
X177842857Y-108897857D01*
X178128571Y-108826428D01*
X178628571Y-108826428D01*
X178914285Y-108897857D01*
X179057142Y-109040714D01*
X179128571Y-109183571D01*
X179128571Y-109469285D01*
X179057142Y-109612142D01*
X178914285Y-109755000D01*
X178628571Y-109826428D01*
X178128571Y-109826428D01*
X177842857Y-109755000D01*
X177700000Y-109612142D01*
X177628571Y-109469285D01*
X178128571Y-108397857D02*
X178128571Y-107826428D01*
X177628571Y-108183571D02*
X178914285Y-108183571D01*
X179057142Y-108112142D01*
X179128571Y-107969285D01*
X179128571Y-107826428D01*
X179128571Y-106683571D02*
X178342857Y-106683571D01*
X178200000Y-106755000D01*
X178128571Y-106897857D01*
X178128571Y-107183571D01*
X178200000Y-107326428D01*
X179057142Y-106683571D02*
X179128571Y-106826428D01*
X179128571Y-107183571D01*
X179057142Y-107326428D01*
X178914285Y-107397857D01*
X178771428Y-107397857D01*
X178628571Y-107326428D01*
X178557142Y-107183571D01*
X178557142Y-106826428D01*
X178485714Y-106683571D01*
X179128571Y-105969285D02*
X178128571Y-105969285D01*
X178271428Y-105969285D02*
X178200000Y-105897857D01*
X178128571Y-105755000D01*
X178128571Y-105540714D01*
X178200000Y-105397857D01*
X178342857Y-105326428D01*
X179128571Y-105326428D01*
X178342857Y-105326428D02*
X178200000Y-105255000D01*
X178128571Y-105112142D01*
X178128571Y-104897857D01*
X178200000Y-104755000D01*
X178342857Y-104683571D01*
X179128571Y-104683571D01*
X179128571Y-103326428D02*
X178342857Y-103326428D01*
X178200000Y-103397857D01*
X178128571Y-103540714D01*
X178128571Y-103826428D01*
X178200000Y-103969285D01*
X179057142Y-103326428D02*
X179128571Y-103469285D01*
X179128571Y-103826428D01*
X179057142Y-103969285D01*
X178914285Y-104040714D01*
X178771428Y-104040714D01*
X178628571Y-103969285D01*
X178557142Y-103826428D01*
X178557142Y-103469285D01*
X178485714Y-103326428D01*
X178128571Y-102826428D02*
X178128571Y-102255000D01*
X177628571Y-102612142D02*
X178914285Y-102612142D01*
X179057142Y-102540714D01*
X179128571Y-102397857D01*
X179128571Y-102255000D01*
X179128571Y-101540714D02*
X179057142Y-101683571D01*
X178985714Y-101755000D01*
X178842857Y-101826428D01*
X178414285Y-101826428D01*
X178271428Y-101755000D01*
X178200000Y-101683571D01*
X178128571Y-101540714D01*
X178128571Y-101326428D01*
X178200000Y-101183571D01*
X178271428Y-101112142D01*
X178414285Y-101040714D01*
X178842857Y-101040714D01*
X178985714Y-101112142D01*
X179057142Y-101183571D01*
X179128571Y-101326428D01*
X179128571Y-101540714D01*
X178128571Y-100397857D02*
X179128571Y-100397857D01*
X178271428Y-100397857D02*
X178200000Y-100326428D01*
X178128571Y-100183571D01*
X178128571Y-99969285D01*
X178200000Y-99826428D01*
X178342857Y-99755000D01*
X179128571Y-99755000D01*
X179057142Y-98469285D02*
X179128571Y-98612142D01*
X179128571Y-98897857D01*
X179057142Y-99040714D01*
X178914285Y-99112142D01*
X178342857Y-99112142D01*
X178200000Y-99040714D01*
X178128571Y-98897857D01*
X178128571Y-98612142D01*
X178200000Y-98469285D01*
X178342857Y-98397857D01*
X178485714Y-98397857D01*
X178628571Y-99112142D01*
X179057142Y-97826428D02*
X179128571Y-97683571D01*
X179128571Y-97397857D01*
X179057142Y-97255000D01*
X178914285Y-97183571D01*
X178842857Y-97183571D01*
X178700000Y-97255000D01*
X178628571Y-97397857D01*
X178628571Y-97612142D01*
X178557142Y-97755000D01*
X178414285Y-97826428D01*
X178342857Y-97826428D01*
X178200000Y-97755000D01*
X178128571Y-97612142D01*
X178128571Y-97397857D01*
X178200000Y-97255000D01*
X208673571Y-74548571D02*
X209602142Y-74548571D01*
X209102142Y-75120000D01*
X209316428Y-75120000D01*
X209459285Y-75191428D01*
X209530714Y-75262857D01*
X209602142Y-75405714D01*
X209602142Y-75762857D01*
X209530714Y-75905714D01*
X209459285Y-75977142D01*
X209316428Y-76048571D01*
X208887857Y-76048571D01*
X208745000Y-75977142D01*
X208673571Y-75905714D01*
X210245000Y-75905714D02*
X210316428Y-75977142D01*
X210245000Y-76048571D01*
X210173571Y-75977142D01*
X210245000Y-75905714D01*
X210245000Y-76048571D01*
X211173571Y-75191428D02*
X211030714Y-75120000D01*
X210959285Y-75048571D01*
X210887857Y-74905714D01*
X210887857Y-74834285D01*
X210959285Y-74691428D01*
X211030714Y-74620000D01*
X211173571Y-74548571D01*
X211459285Y-74548571D01*
X211602142Y-74620000D01*
X211673571Y-74691428D01*
X211745000Y-74834285D01*
X211745000Y-74905714D01*
X211673571Y-75048571D01*
X211602142Y-75120000D01*
X211459285Y-75191428D01*
X211173571Y-75191428D01*
X211030714Y-75262857D01*
X210959285Y-75334285D01*
X210887857Y-75477142D01*
X210887857Y-75762857D01*
X210959285Y-75905714D01*
X211030714Y-75977142D01*
X211173571Y-76048571D01*
X211459285Y-76048571D01*
X211602142Y-75977142D01*
X211673571Y-75905714D01*
X211745000Y-75762857D01*
X211745000Y-75477142D01*
X211673571Y-75334285D01*
X211602142Y-75262857D01*
X211459285Y-75191428D01*
X213102142Y-74548571D02*
X212387857Y-74548571D01*
X212316428Y-75262857D01*
X212387857Y-75191428D01*
X212530714Y-75120000D01*
X212887857Y-75120000D01*
X213030714Y-75191428D01*
X213102142Y-75262857D01*
X213173571Y-75405714D01*
X213173571Y-75762857D01*
X213102142Y-75905714D01*
X213030714Y-75977142D01*
X212887857Y-76048571D01*
X212530714Y-76048571D01*
X212387857Y-75977142D01*
X212316428Y-75905714D01*
X214102142Y-74548571D02*
X214245000Y-74548571D01*
X214387857Y-74620000D01*
X214459285Y-74691428D01*
X214530714Y-74834285D01*
X214602142Y-75120000D01*
X214602142Y-75477142D01*
X214530714Y-75762857D01*
X214459285Y-75905714D01*
X214387857Y-75977142D01*
X214245000Y-76048571D01*
X214102142Y-76048571D01*
X213959285Y-75977142D01*
X213887857Y-75905714D01*
X213816428Y-75762857D01*
X213745000Y-75477142D01*
X213745000Y-75120000D01*
X213816428Y-74834285D01*
X213887857Y-74691428D01*
X213959285Y-74620000D01*
X214102142Y-74548571D01*
X215530714Y-74548571D02*
X215673571Y-74548571D01*
X215816428Y-74620000D01*
X215887857Y-74691428D01*
X215959285Y-74834285D01*
X216030714Y-75120000D01*
X216030714Y-75477142D01*
X215959285Y-75762857D01*
X215887857Y-75905714D01*
X215816428Y-75977142D01*
X215673571Y-76048571D01*
X215530714Y-76048571D01*
X215387857Y-75977142D01*
X215316428Y-75905714D01*
X215245000Y-75762857D01*
X215173571Y-75477142D01*
X215173571Y-75120000D01*
X215245000Y-74834285D01*
X215316428Y-74691428D01*
X215387857Y-74620000D01*
X215530714Y-74548571D01*
X217816428Y-76048571D02*
X217816428Y-75048571D01*
X217816428Y-74548571D02*
X217745000Y-74620000D01*
X217816428Y-74691428D01*
X217887857Y-74620000D01*
X217816428Y-74548571D01*
X217816428Y-74691428D01*
X218530714Y-75048571D02*
X218530714Y-76048571D01*
X218530714Y-75191428D02*
X218602142Y-75120000D01*
X218745000Y-75048571D01*
X218959285Y-75048571D01*
X219102142Y-75120000D01*
X219173571Y-75262857D01*
X219173571Y-76048571D01*
X262890000Y-77470000D02*
X165100000Y-77470000D01*
X262890000Y-82550000D02*
X262890000Y-76883579D01*
X165100000Y-82550000D02*
X165100000Y-76883579D01*
X165100000Y-77470000D02*
X166226504Y-76883579D01*
X165100000Y-77470000D02*
X166226504Y-78056421D01*
X262890000Y-77470000D02*
X261763496Y-76883579D01*
X262890000Y-77470000D02*
X261763496Y-78056421D01*
X270891428Y-115328571D02*
X270891428Y-116257142D01*
X270320000Y-115757142D01*
X270320000Y-115971428D01*
X270248571Y-116114285D01*
X270177142Y-116185714D01*
X270034285Y-116257142D01*
X269677142Y-116257142D01*
X269534285Y-116185714D01*
X269462857Y-116114285D01*
X269391428Y-115971428D01*
X269391428Y-115542857D01*
X269462857Y-115400000D01*
X269534285Y-115328571D01*
X269534285Y-116900000D02*
X269462857Y-116971428D01*
X269391428Y-116900000D01*
X269462857Y-116828571D01*
X269534285Y-116900000D01*
X269391428Y-116900000D01*
X270891428Y-117900000D02*
X270891428Y-118042857D01*
X270820000Y-118185714D01*
X270748571Y-118257142D01*
X270605714Y-118328571D01*
X270320000Y-118400000D01*
X269962857Y-118400000D01*
X269677142Y-118328571D01*
X269534285Y-118257142D01*
X269462857Y-118185714D01*
X269391428Y-118042857D01*
X269391428Y-117900000D01*
X269462857Y-117757142D01*
X269534285Y-117685714D01*
X269677142Y-117614285D01*
X269962857Y-117542857D01*
X270320000Y-117542857D01*
X270605714Y-117614285D01*
X270748571Y-117685714D01*
X270820000Y-117757142D01*
X270891428Y-117900000D01*
X270891428Y-119328571D02*
X270891428Y-119471428D01*
X270820000Y-119614285D01*
X270748571Y-119685714D01*
X270605714Y-119757142D01*
X270320000Y-119828571D01*
X269962857Y-119828571D01*
X269677142Y-119757142D01*
X269534285Y-119685714D01*
X269462857Y-119614285D01*
X269391428Y-119471428D01*
X269391428Y-119328571D01*
X269462857Y-119185714D01*
X269534285Y-119114285D01*
X269677142Y-119042857D01*
X269962857Y-118971428D01*
X270320000Y-118971428D01*
X270605714Y-119042857D01*
X270748571Y-119114285D01*
X270820000Y-119185714D01*
X270891428Y-119328571D01*
X270891428Y-120757142D02*
X270891428Y-120900000D01*
X270820000Y-121042857D01*
X270748571Y-121114285D01*
X270605714Y-121185714D01*
X270320000Y-121257142D01*
X269962857Y-121257142D01*
X269677142Y-121185714D01*
X269534285Y-121114285D01*
X269462857Y-121042857D01*
X269391428Y-120900000D01*
X269391428Y-120757142D01*
X269462857Y-120614285D01*
X269534285Y-120542857D01*
X269677142Y-120471428D01*
X269962857Y-120400000D01*
X270320000Y-120400000D01*
X270605714Y-120471428D01*
X270748571Y-120542857D01*
X270820000Y-120614285D01*
X270891428Y-120757142D01*
X270891428Y-122185714D02*
X270891428Y-122328571D01*
X270820000Y-122471428D01*
X270748571Y-122542857D01*
X270605714Y-122614285D01*
X270320000Y-122685714D01*
X269962857Y-122685714D01*
X269677142Y-122614285D01*
X269534285Y-122542857D01*
X269462857Y-122471428D01*
X269391428Y-122328571D01*
X269391428Y-122185714D01*
X269462857Y-122042857D01*
X269534285Y-121971428D01*
X269677142Y-121900000D01*
X269962857Y-121828571D01*
X270320000Y-121828571D01*
X270605714Y-121900000D01*
X270748571Y-121971428D01*
X270820000Y-122042857D01*
X270891428Y-122185714D01*
X269391428Y-124471428D02*
X270391428Y-124471428D01*
X270891428Y-124471428D02*
X270820000Y-124400000D01*
X270748571Y-124471428D01*
X270820000Y-124542857D01*
X270891428Y-124471428D01*
X270748571Y-124471428D01*
X270391428Y-125185714D02*
X269391428Y-125185714D01*
X270248571Y-125185714D02*
X270320000Y-125257142D01*
X270391428Y-125400000D01*
X270391428Y-125614285D01*
X270320000Y-125757142D01*
X270177142Y-125828571D01*
X269391428Y-125828571D01*
X267970000Y-82550000D02*
X267970000Y-158750000D01*
X262890000Y-82550000D02*
X268556421Y-82550000D01*
X262890000Y-158750000D02*
X268556421Y-158750000D01*
X267970000Y-158750000D02*
X267383579Y-157623496D01*
X267970000Y-158750000D02*
X268556421Y-157623496D01*
X267970000Y-82550000D02*
X267383579Y-83676504D01*
X267970000Y-82550000D02*
X268556421Y-83676504D01*
X176978571Y-145200000D02*
X176978571Y-144342857D01*
X178478571Y-144771428D02*
X176978571Y-144771428D01*
X178407142Y-143271428D02*
X178478571Y-143414285D01*
X178478571Y-143700000D01*
X178407142Y-143842857D01*
X178264285Y-143914285D01*
X177692857Y-143914285D01*
X177550000Y-143842857D01*
X177478571Y-143700000D01*
X177478571Y-143414285D01*
X177550000Y-143271428D01*
X177692857Y-143200000D01*
X177835714Y-143200000D01*
X177978571Y-143914285D01*
X178407142Y-141985714D02*
X178478571Y-142128571D01*
X178478571Y-142414285D01*
X178407142Y-142557142D01*
X178264285Y-142628571D01*
X177692857Y-142628571D01*
X177550000Y-142557142D01*
X177478571Y-142414285D01*
X177478571Y-142128571D01*
X177550000Y-141985714D01*
X177692857Y-141914285D01*
X177835714Y-141914285D01*
X177978571Y-142628571D01*
X177478571Y-141271428D02*
X178478571Y-141271428D01*
X177621428Y-141271428D02*
X177550000Y-141200000D01*
X177478571Y-141057142D01*
X177478571Y-140842857D01*
X177550000Y-140700000D01*
X177692857Y-140628571D01*
X178478571Y-140628571D01*
X178407142Y-139985714D02*
X178478571Y-139842857D01*
X178478571Y-139557142D01*
X178407142Y-139414285D01*
X178264285Y-139342857D01*
X178192857Y-139342857D01*
X178050000Y-139414285D01*
X177978571Y-139557142D01*
X177978571Y-139771428D01*
X177907142Y-139914285D01*
X177764285Y-139985714D01*
X177692857Y-139985714D01*
X177550000Y-139914285D01*
X177478571Y-139771428D01*
X177478571Y-139557142D01*
X177550000Y-139414285D01*
X177478571Y-138842857D02*
X178478571Y-138485714D01*
X177478571Y-138128571D02*
X178478571Y-138485714D01*
X178835714Y-138628571D01*
X178907142Y-138700000D01*
X178978571Y-138842857D01*
X178478571Y-135700000D02*
X178478571Y-136414285D01*
X176978571Y-136414285D01*
X178335714Y-134342857D02*
X178407142Y-134414285D01*
X178478571Y-134628571D01*
X178478571Y-134771428D01*
X178407142Y-134985714D01*
X178264285Y-135128571D01*
X178121428Y-135200000D01*
X177835714Y-135271428D01*
X177621428Y-135271428D01*
X177335714Y-135200000D01*
X177192857Y-135128571D01*
X177050000Y-134985714D01*
X176978571Y-134771428D01*
X176978571Y-134628571D01*
X177050000Y-134414285D01*
X177121428Y-134342857D01*
D11*
G04 #@! TO.C,U2*
X236280000Y-89900000D02*
G75*
G02X236280000Y-87900000I0J1000000D01*
G01*
X236280000Y-87900000D02*
X236280000Y-86650000D01*
X236280000Y-86650000D02*
X226000000Y-86650000D01*
X226000000Y-86650000D02*
X226000000Y-91150000D01*
X226000000Y-91150000D02*
X236280000Y-91150000D01*
X236280000Y-91150000D02*
X236280000Y-89900000D01*
G04 #@! TO.C,U3*
X248980000Y-91150000D02*
X248980000Y-89900000D01*
X238700000Y-91150000D02*
X248980000Y-91150000D01*
X238700000Y-86650000D02*
X238700000Y-91150000D01*
X248980000Y-86650000D02*
X238700000Y-86650000D01*
X248980000Y-87900000D02*
X248980000Y-86650000D01*
X248980000Y-89900000D02*
G75*
G02X248980000Y-87900000I0J1000000D01*
G01*
G04 #@! TO.C,U4*
X236280000Y-102600000D02*
G75*
G02X236280000Y-100600000I0J1000000D01*
G01*
X236280000Y-100600000D02*
X236280000Y-99350000D01*
X236280000Y-99350000D02*
X226000000Y-99350000D01*
X226000000Y-99350000D02*
X226000000Y-103850000D01*
X226000000Y-103850000D02*
X236280000Y-103850000D01*
X236280000Y-103850000D02*
X236280000Y-102600000D01*
G04 #@! TO.C,U5*
X248980000Y-103850000D02*
X248980000Y-102600000D01*
X238700000Y-103850000D02*
X248980000Y-103850000D01*
X238700000Y-99350000D02*
X238700000Y-103850000D01*
X248980000Y-99350000D02*
X238700000Y-99350000D01*
X248980000Y-100600000D02*
X248980000Y-99350000D01*
X248980000Y-102600000D02*
G75*
G02X248980000Y-100600000I0J1000000D01*
G01*
G04 #@! TO.C,U6*
X236280000Y-115300000D02*
G75*
G02X236280000Y-113300000I0J1000000D01*
G01*
X236280000Y-113300000D02*
X236280000Y-112050000D01*
X236280000Y-112050000D02*
X226000000Y-112050000D01*
X226000000Y-112050000D02*
X226000000Y-116550000D01*
X226000000Y-116550000D02*
X236280000Y-116550000D01*
X236280000Y-116550000D02*
X236280000Y-115300000D01*
G04 #@! TO.C,U7*
X248980000Y-116550000D02*
X248980000Y-115300000D01*
X238700000Y-116550000D02*
X248980000Y-116550000D01*
X238700000Y-112050000D02*
X238700000Y-116550000D01*
X248980000Y-112050000D02*
X238700000Y-112050000D01*
X248980000Y-113300000D02*
X248980000Y-112050000D01*
X248980000Y-115300000D02*
G75*
G02X248980000Y-113300000I0J1000000D01*
G01*
G04 #@! TO.C,U8*
X236280000Y-128000000D02*
G75*
G02X236280000Y-126000000I0J1000000D01*
G01*
X236280000Y-126000000D02*
X236280000Y-124750000D01*
X236280000Y-124750000D02*
X226000000Y-124750000D01*
X226000000Y-124750000D02*
X226000000Y-129250000D01*
X226000000Y-129250000D02*
X236280000Y-129250000D01*
X236280000Y-129250000D02*
X236280000Y-128000000D01*
G04 #@! TO.C,U9*
X248980000Y-129250000D02*
X248980000Y-128000000D01*
X238700000Y-129250000D02*
X248980000Y-129250000D01*
X238700000Y-124750000D02*
X238700000Y-129250000D01*
X248980000Y-124750000D02*
X238700000Y-124750000D01*
X248980000Y-126000000D02*
X248980000Y-124750000D01*
X248980000Y-128000000D02*
G75*
G02X248980000Y-126000000I0J1000000D01*
G01*
G04 #@! TO.C,U10*
X236280000Y-140700000D02*
G75*
G02X236280000Y-138700000I0J1000000D01*
G01*
X236280000Y-138700000D02*
X236280000Y-137450000D01*
X236280000Y-137450000D02*
X226000000Y-137450000D01*
X226000000Y-137450000D02*
X226000000Y-141950000D01*
X226000000Y-141950000D02*
X236280000Y-141950000D01*
X236280000Y-141950000D02*
X236280000Y-140700000D01*
G04 #@! TO.C,U11*
X248980000Y-141950000D02*
X248980000Y-140700000D01*
X238700000Y-141950000D02*
X248980000Y-141950000D01*
X238700000Y-137450000D02*
X238700000Y-141950000D01*
X248980000Y-137450000D02*
X238700000Y-137450000D01*
X248980000Y-138700000D02*
X248980000Y-137450000D01*
X248980000Y-140700000D02*
G75*
G02X248980000Y-138700000I0J1000000D01*
G01*
G04 #@! TO.C,U12*
X236280000Y-153400000D02*
G75*
G02X236280000Y-151400000I0J1000000D01*
G01*
X236280000Y-151400000D02*
X236280000Y-150150000D01*
X236280000Y-150150000D02*
X226000000Y-150150000D01*
X226000000Y-150150000D02*
X226000000Y-154650000D01*
X226000000Y-154650000D02*
X236280000Y-154650000D01*
X236280000Y-154650000D02*
X236280000Y-153400000D01*
G04 #@! TO.C,U13*
X248980000Y-154650000D02*
X248980000Y-153400000D01*
X238700000Y-154650000D02*
X248980000Y-154650000D01*
X238700000Y-150150000D02*
X238700000Y-154650000D01*
X248980000Y-150150000D02*
X238700000Y-150150000D01*
X248980000Y-151400000D02*
X248980000Y-150150000D01*
X248980000Y-153400000D02*
G75*
G02X248980000Y-151400000I0J1000000D01*
G01*
D12*
G04 #@! TO.C,K6*
X186690000Y-147955000D02*
X224790000Y-147955000D01*
X224790000Y-147955000D02*
X224790000Y-156845000D01*
X224790000Y-156845000D02*
X186690000Y-156845000D01*
X186690000Y-156845000D02*
X186690000Y-147955000D01*
G04 #@! TO.C,K5*
X186690000Y-144145000D02*
X186690000Y-135255000D01*
X224790000Y-144145000D02*
X186690000Y-144145000D01*
X224790000Y-135255000D02*
X224790000Y-144145000D01*
X186690000Y-135255000D02*
X224790000Y-135255000D01*
G04 #@! TO.C,K4*
X186690000Y-122555000D02*
X224790000Y-122555000D01*
X224790000Y-122555000D02*
X224790000Y-131445000D01*
X224790000Y-131445000D02*
X186690000Y-131445000D01*
X186690000Y-131445000D02*
X186690000Y-122555000D01*
G04 #@! TO.C,K3*
X186690000Y-118745000D02*
X186690000Y-109855000D01*
X224790000Y-118745000D02*
X186690000Y-118745000D01*
X224790000Y-109855000D02*
X224790000Y-118745000D01*
X186690000Y-109855000D02*
X224790000Y-109855000D01*
G04 #@! TO.C,K2*
X186690000Y-97155000D02*
X224790000Y-97155000D01*
X224790000Y-97155000D02*
X224790000Y-106045000D01*
X224790000Y-106045000D02*
X186690000Y-106045000D01*
X186690000Y-106045000D02*
X186690000Y-97155000D01*
G04 #@! TO.C,K1*
X186690000Y-93345000D02*
X186690000Y-84455000D01*
X224790000Y-93345000D02*
X186690000Y-93345000D01*
X224790000Y-84455000D02*
X224790000Y-93345000D01*
X186690000Y-84455000D02*
X224790000Y-84455000D01*
G04 #@! TO.C,J4*
X261620000Y-129540000D02*
X257429000Y-129540000D01*
X261620000Y-121920000D02*
X257429000Y-121920000D01*
X261620000Y-121920000D02*
X261620000Y-132080000D01*
X251200000Y-121920000D02*
X251200000Y-132080000D01*
X261620000Y-127000000D02*
X257429000Y-127000000D01*
X257400000Y-121920000D02*
X257400000Y-132080000D01*
X261620000Y-124460000D02*
X257429000Y-124460000D01*
X254000000Y-132080000D02*
X257400000Y-132080000D01*
X251206000Y-121920000D02*
X254000000Y-121920000D01*
X261620000Y-132080000D02*
X257429000Y-132080000D01*
X254000000Y-121920000D02*
X257400000Y-121920000D01*
X251206000Y-132080000D02*
X254000000Y-132080000D01*
G04 #@! TO.C,J1*
X251206000Y-93980000D02*
X254000000Y-93980000D01*
X254000000Y-83820000D02*
X257400000Y-83820000D01*
X261620000Y-93980000D02*
X257429000Y-93980000D01*
X251206000Y-83820000D02*
X254000000Y-83820000D01*
X254000000Y-93980000D02*
X257400000Y-93980000D01*
X261620000Y-86360000D02*
X257429000Y-86360000D01*
X257400000Y-83820000D02*
X257400000Y-93980000D01*
X261620000Y-88900000D02*
X257429000Y-88900000D01*
X251200000Y-83820000D02*
X251200000Y-93980000D01*
X261620000Y-83820000D02*
X261620000Y-93980000D01*
X261620000Y-83820000D02*
X257429000Y-83820000D01*
X261620000Y-91440000D02*
X257429000Y-91440000D01*
G04 #@! TO.C,J3*
X261620000Y-116840000D02*
X257429000Y-116840000D01*
X261620000Y-109220000D02*
X257429000Y-109220000D01*
X261620000Y-109220000D02*
X261620000Y-119380000D01*
X251200000Y-109220000D02*
X251200000Y-119380000D01*
X261620000Y-114300000D02*
X257429000Y-114300000D01*
X257400000Y-109220000D02*
X257400000Y-119380000D01*
X261620000Y-111760000D02*
X257429000Y-111760000D01*
X254000000Y-119380000D02*
X257400000Y-119380000D01*
X251206000Y-109220000D02*
X254000000Y-109220000D01*
X261620000Y-119380000D02*
X257429000Y-119380000D01*
X254000000Y-109220000D02*
X257400000Y-109220000D01*
X251206000Y-119380000D02*
X254000000Y-119380000D01*
G04 #@! TO.C,J5*
X251206000Y-144780000D02*
X254000000Y-144780000D01*
X254000000Y-134620000D02*
X257400000Y-134620000D01*
X261620000Y-144780000D02*
X257429000Y-144780000D01*
X251206000Y-134620000D02*
X254000000Y-134620000D01*
X254000000Y-144780000D02*
X257400000Y-144780000D01*
X261620000Y-137160000D02*
X257429000Y-137160000D01*
X257400000Y-134620000D02*
X257400000Y-144780000D01*
X261620000Y-139700000D02*
X257429000Y-139700000D01*
X251200000Y-134620000D02*
X251200000Y-144780000D01*
X261620000Y-134620000D02*
X261620000Y-144780000D01*
X261620000Y-134620000D02*
X257429000Y-134620000D01*
X261620000Y-142240000D02*
X257429000Y-142240000D01*
G04 #@! TO.C,J6*
X261620000Y-154940000D02*
X257429000Y-154940000D01*
X261620000Y-147320000D02*
X257429000Y-147320000D01*
X261620000Y-147320000D02*
X261620000Y-157480000D01*
X251200000Y-147320000D02*
X251200000Y-157480000D01*
X261620000Y-152400000D02*
X257429000Y-152400000D01*
X257400000Y-147320000D02*
X257400000Y-157480000D01*
X261620000Y-149860000D02*
X257429000Y-149860000D01*
X254000000Y-157480000D02*
X257400000Y-157480000D01*
X251206000Y-147320000D02*
X254000000Y-147320000D01*
X261620000Y-157480000D02*
X257429000Y-157480000D01*
X254000000Y-147320000D02*
X257400000Y-147320000D01*
X251206000Y-157480000D02*
X254000000Y-157480000D01*
G04 #@! TO.C,J2*
X251206000Y-106680000D02*
X254000000Y-106680000D01*
X254000000Y-96520000D02*
X257400000Y-96520000D01*
X261620000Y-106680000D02*
X257429000Y-106680000D01*
X251206000Y-96520000D02*
X254000000Y-96520000D01*
X254000000Y-106680000D02*
X257400000Y-106680000D01*
X261620000Y-99060000D02*
X257429000Y-99060000D01*
X257400000Y-96520000D02*
X257400000Y-106680000D01*
X261620000Y-101600000D02*
X257429000Y-101600000D01*
X251200000Y-96520000D02*
X251200000Y-106680000D01*
X261620000Y-96520000D02*
X261620000Y-106680000D01*
X261620000Y-96520000D02*
X257429000Y-96520000D01*
X261620000Y-104140000D02*
X257429000Y-104140000D01*
G04 #@! TO.C,U1*
X179070000Y-157480000D02*
X179070000Y-158750000D01*
X179070000Y-158750000D02*
X171450000Y-158750000D01*
X171450000Y-158750000D02*
X171450000Y-157480000D01*
X166370000Y-157480000D02*
X166370000Y-121920000D01*
X166370000Y-121920000D02*
X184150000Y-121920000D01*
X184150000Y-121920000D02*
X184150000Y-157480000D01*
X184150000Y-157480000D02*
X166370000Y-157480000D01*
G04 #@! TO.C,H2*
X181182380Y-151891904D02*
X180182380Y-151891904D01*
X180658571Y-151891904D02*
X180658571Y-151320476D01*
X181182380Y-151320476D02*
X180182380Y-151320476D01*
X180277619Y-150891904D02*
X180230000Y-150844285D01*
X180182380Y-150749047D01*
X180182380Y-150510952D01*
X180230000Y-150415714D01*
X180277619Y-150368095D01*
X180372857Y-150320476D01*
X180468095Y-150320476D01*
X180610952Y-150368095D01*
X181182380Y-150939523D01*
X181182380Y-150320476D01*
G04 #@! TO.C,H1*
X174197380Y-87756904D02*
X173197380Y-87756904D01*
X173673571Y-87756904D02*
X173673571Y-87185476D01*
X174197380Y-87185476D02*
X173197380Y-87185476D01*
X174197380Y-86185476D02*
X174197380Y-86756904D01*
X174197380Y-86471190D02*
X173197380Y-86471190D01*
X173340238Y-86566428D01*
X173435476Y-86661666D01*
X173483095Y-86756904D01*
G04 #@! TO.C,U2*
X236732380Y-89661904D02*
X237541904Y-89661904D01*
X237637142Y-89614285D01*
X237684761Y-89566666D01*
X237732380Y-89471428D01*
X237732380Y-89280952D01*
X237684761Y-89185714D01*
X237637142Y-89138095D01*
X237541904Y-89090476D01*
X236732380Y-89090476D01*
X236827619Y-88661904D02*
X236780000Y-88614285D01*
X236732380Y-88519047D01*
X236732380Y-88280952D01*
X236780000Y-88185714D01*
X236827619Y-88138095D01*
X236922857Y-88090476D01*
X237018095Y-88090476D01*
X237160952Y-88138095D01*
X237732380Y-88709523D01*
X237732380Y-88090476D01*
G04 #@! TO.C,U3*
X249432380Y-89661904D02*
X250241904Y-89661904D01*
X250337142Y-89614285D01*
X250384761Y-89566666D01*
X250432380Y-89471428D01*
X250432380Y-89280952D01*
X250384761Y-89185714D01*
X250337142Y-89138095D01*
X250241904Y-89090476D01*
X249432380Y-89090476D01*
X249432380Y-88709523D02*
X249432380Y-88090476D01*
X249813333Y-88423809D01*
X249813333Y-88280952D01*
X249860952Y-88185714D01*
X249908571Y-88138095D01*
X250003809Y-88090476D01*
X250241904Y-88090476D01*
X250337142Y-88138095D01*
X250384761Y-88185714D01*
X250432380Y-88280952D01*
X250432380Y-88566666D01*
X250384761Y-88661904D01*
X250337142Y-88709523D01*
G04 #@! TO.C,U4*
X236732380Y-102361904D02*
X237541904Y-102361904D01*
X237637142Y-102314285D01*
X237684761Y-102266666D01*
X237732380Y-102171428D01*
X237732380Y-101980952D01*
X237684761Y-101885714D01*
X237637142Y-101838095D01*
X237541904Y-101790476D01*
X236732380Y-101790476D01*
X237065714Y-100885714D02*
X237732380Y-100885714D01*
X236684761Y-101123809D02*
X237399047Y-101361904D01*
X237399047Y-100742857D01*
G04 #@! TO.C,U5*
X249432380Y-102361904D02*
X250241904Y-102361904D01*
X250337142Y-102314285D01*
X250384761Y-102266666D01*
X250432380Y-102171428D01*
X250432380Y-101980952D01*
X250384761Y-101885714D01*
X250337142Y-101838095D01*
X250241904Y-101790476D01*
X249432380Y-101790476D01*
X249432380Y-100838095D02*
X249432380Y-101314285D01*
X249908571Y-101361904D01*
X249860952Y-101314285D01*
X249813333Y-101219047D01*
X249813333Y-100980952D01*
X249860952Y-100885714D01*
X249908571Y-100838095D01*
X250003809Y-100790476D01*
X250241904Y-100790476D01*
X250337142Y-100838095D01*
X250384761Y-100885714D01*
X250432380Y-100980952D01*
X250432380Y-101219047D01*
X250384761Y-101314285D01*
X250337142Y-101361904D01*
G04 #@! TO.C,U6*
X236732380Y-115061904D02*
X237541904Y-115061904D01*
X237637142Y-115014285D01*
X237684761Y-114966666D01*
X237732380Y-114871428D01*
X237732380Y-114680952D01*
X237684761Y-114585714D01*
X237637142Y-114538095D01*
X237541904Y-114490476D01*
X236732380Y-114490476D01*
X236732380Y-113585714D02*
X236732380Y-113776190D01*
X236780000Y-113871428D01*
X236827619Y-113919047D01*
X236970476Y-114014285D01*
X237160952Y-114061904D01*
X237541904Y-114061904D01*
X237637142Y-114014285D01*
X237684761Y-113966666D01*
X237732380Y-113871428D01*
X237732380Y-113680952D01*
X237684761Y-113585714D01*
X237637142Y-113538095D01*
X237541904Y-113490476D01*
X237303809Y-113490476D01*
X237208571Y-113538095D01*
X237160952Y-113585714D01*
X237113333Y-113680952D01*
X237113333Y-113871428D01*
X237160952Y-113966666D01*
X237208571Y-114014285D01*
X237303809Y-114061904D01*
G04 #@! TO.C,U7*
X249432380Y-115061904D02*
X250241904Y-115061904D01*
X250337142Y-115014285D01*
X250384761Y-114966666D01*
X250432380Y-114871428D01*
X250432380Y-114680952D01*
X250384761Y-114585714D01*
X250337142Y-114538095D01*
X250241904Y-114490476D01*
X249432380Y-114490476D01*
X249432380Y-114109523D02*
X249432380Y-113442857D01*
X250432380Y-113871428D01*
G04 #@! TO.C,U8*
X236732380Y-127761904D02*
X237541904Y-127761904D01*
X237637142Y-127714285D01*
X237684761Y-127666666D01*
X237732380Y-127571428D01*
X237732380Y-127380952D01*
X237684761Y-127285714D01*
X237637142Y-127238095D01*
X237541904Y-127190476D01*
X236732380Y-127190476D01*
X237160952Y-126571428D02*
X237113333Y-126666666D01*
X237065714Y-126714285D01*
X236970476Y-126761904D01*
X236922857Y-126761904D01*
X236827619Y-126714285D01*
X236780000Y-126666666D01*
X236732380Y-126571428D01*
X236732380Y-126380952D01*
X236780000Y-126285714D01*
X236827619Y-126238095D01*
X236922857Y-126190476D01*
X236970476Y-126190476D01*
X237065714Y-126238095D01*
X237113333Y-126285714D01*
X237160952Y-126380952D01*
X237160952Y-126571428D01*
X237208571Y-126666666D01*
X237256190Y-126714285D01*
X237351428Y-126761904D01*
X237541904Y-126761904D01*
X237637142Y-126714285D01*
X237684761Y-126666666D01*
X237732380Y-126571428D01*
X237732380Y-126380952D01*
X237684761Y-126285714D01*
X237637142Y-126238095D01*
X237541904Y-126190476D01*
X237351428Y-126190476D01*
X237256190Y-126238095D01*
X237208571Y-126285714D01*
X237160952Y-126380952D01*
G04 #@! TO.C,U9*
X249432380Y-127761904D02*
X250241904Y-127761904D01*
X250337142Y-127714285D01*
X250384761Y-127666666D01*
X250432380Y-127571428D01*
X250432380Y-127380952D01*
X250384761Y-127285714D01*
X250337142Y-127238095D01*
X250241904Y-127190476D01*
X249432380Y-127190476D01*
X250432380Y-126666666D02*
X250432380Y-126476190D01*
X250384761Y-126380952D01*
X250337142Y-126333333D01*
X250194285Y-126238095D01*
X250003809Y-126190476D01*
X249622857Y-126190476D01*
X249527619Y-126238095D01*
X249480000Y-126285714D01*
X249432380Y-126380952D01*
X249432380Y-126571428D01*
X249480000Y-126666666D01*
X249527619Y-126714285D01*
X249622857Y-126761904D01*
X249860952Y-126761904D01*
X249956190Y-126714285D01*
X250003809Y-126666666D01*
X250051428Y-126571428D01*
X250051428Y-126380952D01*
X250003809Y-126285714D01*
X249956190Y-126238095D01*
X249860952Y-126190476D01*
G04 #@! TO.C,U10*
X236732380Y-140938095D02*
X237541904Y-140938095D01*
X237637142Y-140890476D01*
X237684761Y-140842857D01*
X237732380Y-140747619D01*
X237732380Y-140557142D01*
X237684761Y-140461904D01*
X237637142Y-140414285D01*
X237541904Y-140366666D01*
X236732380Y-140366666D01*
X237732380Y-139366666D02*
X237732380Y-139938095D01*
X237732380Y-139652380D02*
X236732380Y-139652380D01*
X236875238Y-139747619D01*
X236970476Y-139842857D01*
X237018095Y-139938095D01*
X236732380Y-138747619D02*
X236732380Y-138652380D01*
X236780000Y-138557142D01*
X236827619Y-138509523D01*
X236922857Y-138461904D01*
X237113333Y-138414285D01*
X237351428Y-138414285D01*
X237541904Y-138461904D01*
X237637142Y-138509523D01*
X237684761Y-138557142D01*
X237732380Y-138652380D01*
X237732380Y-138747619D01*
X237684761Y-138842857D01*
X237637142Y-138890476D01*
X237541904Y-138938095D01*
X237351428Y-138985714D01*
X237113333Y-138985714D01*
X236922857Y-138938095D01*
X236827619Y-138890476D01*
X236780000Y-138842857D01*
X236732380Y-138747619D01*
G04 #@! TO.C,U11*
X249432380Y-140938095D02*
X250241904Y-140938095D01*
X250337142Y-140890476D01*
X250384761Y-140842857D01*
X250432380Y-140747619D01*
X250432380Y-140557142D01*
X250384761Y-140461904D01*
X250337142Y-140414285D01*
X250241904Y-140366666D01*
X249432380Y-140366666D01*
X250432380Y-139366666D02*
X250432380Y-139938095D01*
X250432380Y-139652380D02*
X249432380Y-139652380D01*
X249575238Y-139747619D01*
X249670476Y-139842857D01*
X249718095Y-139938095D01*
X250432380Y-138414285D02*
X250432380Y-138985714D01*
X250432380Y-138700000D02*
X249432380Y-138700000D01*
X249575238Y-138795238D01*
X249670476Y-138890476D01*
X249718095Y-138985714D01*
G04 #@! TO.C,U12*
X236732380Y-153638095D02*
X237541904Y-153638095D01*
X237637142Y-153590476D01*
X237684761Y-153542857D01*
X237732380Y-153447619D01*
X237732380Y-153257142D01*
X237684761Y-153161904D01*
X237637142Y-153114285D01*
X237541904Y-153066666D01*
X236732380Y-153066666D01*
X237732380Y-152066666D02*
X237732380Y-152638095D01*
X237732380Y-152352380D02*
X236732380Y-152352380D01*
X236875238Y-152447619D01*
X236970476Y-152542857D01*
X237018095Y-152638095D01*
X236827619Y-151685714D02*
X236780000Y-151638095D01*
X236732380Y-151542857D01*
X236732380Y-151304761D01*
X236780000Y-151209523D01*
X236827619Y-151161904D01*
X236922857Y-151114285D01*
X237018095Y-151114285D01*
X237160952Y-151161904D01*
X237732380Y-151733333D01*
X237732380Y-151114285D01*
G04 #@! TO.C,U13*
X249432380Y-153638095D02*
X250241904Y-153638095D01*
X250337142Y-153590476D01*
X250384761Y-153542857D01*
X250432380Y-153447619D01*
X250432380Y-153257142D01*
X250384761Y-153161904D01*
X250337142Y-153114285D01*
X250241904Y-153066666D01*
X249432380Y-153066666D01*
X250432380Y-152066666D02*
X250432380Y-152638095D01*
X250432380Y-152352380D02*
X249432380Y-152352380D01*
X249575238Y-152447619D01*
X249670476Y-152542857D01*
X249718095Y-152638095D01*
X249432380Y-151733333D02*
X249432380Y-151114285D01*
X249813333Y-151447619D01*
X249813333Y-151304761D01*
X249860952Y-151209523D01*
X249908571Y-151161904D01*
X250003809Y-151114285D01*
X250241904Y-151114285D01*
X250337142Y-151161904D01*
X250384761Y-151209523D01*
X250432380Y-151304761D01*
X250432380Y-151590476D01*
X250384761Y-151685714D01*
X250337142Y-151733333D01*
G04 #@! TO.C,K6*
X205001904Y-152852380D02*
X205001904Y-151852380D01*
X205573333Y-152852380D02*
X205144761Y-152280952D01*
X205573333Y-151852380D02*
X205001904Y-152423809D01*
X206430476Y-151852380D02*
X206240000Y-151852380D01*
X206144761Y-151900000D01*
X206097142Y-151947619D01*
X206001904Y-152090476D01*
X205954285Y-152280952D01*
X205954285Y-152661904D01*
X206001904Y-152757142D01*
X206049523Y-152804761D01*
X206144761Y-152852380D01*
X206335238Y-152852380D01*
X206430476Y-152804761D01*
X206478095Y-152757142D01*
X206525714Y-152661904D01*
X206525714Y-152423809D01*
X206478095Y-152328571D01*
X206430476Y-152280952D01*
X206335238Y-152233333D01*
X206144761Y-152233333D01*
X206049523Y-152280952D01*
X206001904Y-152328571D01*
X205954285Y-152423809D01*
G04 #@! TO.C,K5*
X205001904Y-140152380D02*
X205001904Y-139152380D01*
X205573333Y-140152380D02*
X205144761Y-139580952D01*
X205573333Y-139152380D02*
X205001904Y-139723809D01*
X206478095Y-139152380D02*
X206001904Y-139152380D01*
X205954285Y-139628571D01*
X206001904Y-139580952D01*
X206097142Y-139533333D01*
X206335238Y-139533333D01*
X206430476Y-139580952D01*
X206478095Y-139628571D01*
X206525714Y-139723809D01*
X206525714Y-139961904D01*
X206478095Y-140057142D01*
X206430476Y-140104761D01*
X206335238Y-140152380D01*
X206097142Y-140152380D01*
X206001904Y-140104761D01*
X205954285Y-140057142D01*
G04 #@! TO.C,K4*
X205001904Y-127452380D02*
X205001904Y-126452380D01*
X205573333Y-127452380D02*
X205144761Y-126880952D01*
X205573333Y-126452380D02*
X205001904Y-127023809D01*
X206430476Y-126785714D02*
X206430476Y-127452380D01*
X206192380Y-126404761D02*
X205954285Y-127119047D01*
X206573333Y-127119047D01*
G04 #@! TO.C,K3*
X205001904Y-114752380D02*
X205001904Y-113752380D01*
X205573333Y-114752380D02*
X205144761Y-114180952D01*
X205573333Y-113752380D02*
X205001904Y-114323809D01*
X205906666Y-113752380D02*
X206525714Y-113752380D01*
X206192380Y-114133333D01*
X206335238Y-114133333D01*
X206430476Y-114180952D01*
X206478095Y-114228571D01*
X206525714Y-114323809D01*
X206525714Y-114561904D01*
X206478095Y-114657142D01*
X206430476Y-114704761D01*
X206335238Y-114752380D01*
X206049523Y-114752380D01*
X205954285Y-114704761D01*
X205906666Y-114657142D01*
G04 #@! TO.C,K2*
X205001904Y-102052380D02*
X205001904Y-101052380D01*
X205573333Y-102052380D02*
X205144761Y-101480952D01*
X205573333Y-101052380D02*
X205001904Y-101623809D01*
X205954285Y-101147619D02*
X206001904Y-101100000D01*
X206097142Y-101052380D01*
X206335238Y-101052380D01*
X206430476Y-101100000D01*
X206478095Y-101147619D01*
X206525714Y-101242857D01*
X206525714Y-101338095D01*
X206478095Y-101480952D01*
X205906666Y-102052380D01*
X206525714Y-102052380D01*
G04 #@! TO.C,K1*
X205001904Y-89352380D02*
X205001904Y-88352380D01*
X205573333Y-89352380D02*
X205144761Y-88780952D01*
X205573333Y-88352380D02*
X205001904Y-88923809D01*
X206525714Y-89352380D02*
X205954285Y-89352380D01*
X206240000Y-89352380D02*
X206240000Y-88352380D01*
X206144761Y-88495238D01*
X206049523Y-88590476D01*
X205954285Y-88638095D01*
G04 #@! TO.C,J4*
X255992380Y-127333333D02*
X256706666Y-127333333D01*
X256849523Y-127380952D01*
X256944761Y-127476190D01*
X256992380Y-127619047D01*
X256992380Y-127714285D01*
X256325714Y-126428571D02*
X256992380Y-126428571D01*
X255944761Y-126666666D02*
X256659047Y-126904761D01*
X256659047Y-126285714D01*
X257802285Y-128674761D02*
X257945142Y-128722380D01*
X258183238Y-128722380D01*
X258278476Y-128674761D01*
X258326095Y-128627142D01*
X258373714Y-128531904D01*
X258373714Y-128436666D01*
X258326095Y-128341428D01*
X258278476Y-128293809D01*
X258183238Y-128246190D01*
X257992761Y-128198571D01*
X257897523Y-128150952D01*
X257849904Y-128103333D01*
X257802285Y-128008095D01*
X257802285Y-127912857D01*
X257849904Y-127817619D01*
X257897523Y-127770000D01*
X257992761Y-127722380D01*
X258230857Y-127722380D01*
X258373714Y-127770000D01*
X258802285Y-128722380D02*
X258802285Y-127722380D01*
X259183238Y-127722380D01*
X259278476Y-127770000D01*
X259326095Y-127817619D01*
X259373714Y-127912857D01*
X259373714Y-128055714D01*
X259326095Y-128150952D01*
X259278476Y-128198571D01*
X259183238Y-128246190D01*
X258802285Y-128246190D01*
X259802285Y-128722380D02*
X259802285Y-127722380D01*
X260373714Y-128722380D02*
X259945142Y-128150952D01*
X260373714Y-127722380D02*
X259802285Y-128293809D01*
X261373714Y-128722380D02*
X261040380Y-128246190D01*
X260802285Y-128722380D02*
X260802285Y-127722380D01*
X261183238Y-127722380D01*
X261278476Y-127770000D01*
X261326095Y-127817619D01*
X261373714Y-127912857D01*
X261373714Y-128055714D01*
X261326095Y-128150952D01*
X261278476Y-128198571D01*
X261183238Y-128246190D01*
X260802285Y-128246190D01*
X258826095Y-130310000D02*
X258730857Y-130262380D01*
X258588000Y-130262380D01*
X258445142Y-130310000D01*
X258349904Y-130405238D01*
X258302285Y-130500476D01*
X258254666Y-130690952D01*
X258254666Y-130833809D01*
X258302285Y-131024285D01*
X258349904Y-131119523D01*
X258445142Y-131214761D01*
X258588000Y-131262380D01*
X258683238Y-131262380D01*
X258826095Y-131214761D01*
X258873714Y-131167142D01*
X258873714Y-130833809D01*
X258683238Y-130833809D01*
X259302285Y-131262380D02*
X259302285Y-130262380D01*
X259873714Y-131262380D01*
X259873714Y-130262380D01*
X260349904Y-131262380D02*
X260349904Y-130262380D01*
X260588000Y-130262380D01*
X260730857Y-130310000D01*
X260826095Y-130405238D01*
X260873714Y-130500476D01*
X260921333Y-130690952D01*
X260921333Y-130833809D01*
X260873714Y-131024285D01*
X260826095Y-131119523D01*
X260730857Y-131214761D01*
X260588000Y-131262380D01*
X260349904Y-131262380D01*
X259532476Y-123642380D02*
X259199142Y-123166190D01*
X258961047Y-123642380D02*
X258961047Y-122642380D01*
X259342000Y-122642380D01*
X259437238Y-122690000D01*
X259484857Y-122737619D01*
X259532476Y-122832857D01*
X259532476Y-122975714D01*
X259484857Y-123070952D01*
X259437238Y-123118571D01*
X259342000Y-123166190D01*
X258961047Y-123166190D01*
X259961047Y-123261428D02*
X260722952Y-123261428D01*
X259532476Y-126182380D02*
X259199142Y-125706190D01*
X258961047Y-126182380D02*
X258961047Y-125182380D01*
X259342000Y-125182380D01*
X259437238Y-125230000D01*
X259484857Y-125277619D01*
X259532476Y-125372857D01*
X259532476Y-125515714D01*
X259484857Y-125610952D01*
X259437238Y-125658571D01*
X259342000Y-125706190D01*
X258961047Y-125706190D01*
X259961047Y-125801428D02*
X260722952Y-125801428D01*
X260342000Y-126182380D02*
X260342000Y-125420476D01*
G04 #@! TO.C,J1*
X255992380Y-89233333D02*
X256706666Y-89233333D01*
X256849523Y-89280952D01*
X256944761Y-89376190D01*
X256992380Y-89519047D01*
X256992380Y-89614285D01*
X256992380Y-88233333D02*
X256992380Y-88804761D01*
X256992380Y-88519047D02*
X255992380Y-88519047D01*
X256135238Y-88614285D01*
X256230476Y-88709523D01*
X256278095Y-88804761D01*
X259532476Y-88082380D02*
X259199142Y-87606190D01*
X258961047Y-88082380D02*
X258961047Y-87082380D01*
X259342000Y-87082380D01*
X259437238Y-87130000D01*
X259484857Y-87177619D01*
X259532476Y-87272857D01*
X259532476Y-87415714D01*
X259484857Y-87510952D01*
X259437238Y-87558571D01*
X259342000Y-87606190D01*
X258961047Y-87606190D01*
X259961047Y-87701428D02*
X260722952Y-87701428D01*
X260342000Y-88082380D02*
X260342000Y-87320476D01*
X259532476Y-85542380D02*
X259199142Y-85066190D01*
X258961047Y-85542380D02*
X258961047Y-84542380D01*
X259342000Y-84542380D01*
X259437238Y-84590000D01*
X259484857Y-84637619D01*
X259532476Y-84732857D01*
X259532476Y-84875714D01*
X259484857Y-84970952D01*
X259437238Y-85018571D01*
X259342000Y-85066190D01*
X258961047Y-85066190D01*
X259961047Y-85161428D02*
X260722952Y-85161428D01*
X258826095Y-92210000D02*
X258730857Y-92162380D01*
X258588000Y-92162380D01*
X258445142Y-92210000D01*
X258349904Y-92305238D01*
X258302285Y-92400476D01*
X258254666Y-92590952D01*
X258254666Y-92733809D01*
X258302285Y-92924285D01*
X258349904Y-93019523D01*
X258445142Y-93114761D01*
X258588000Y-93162380D01*
X258683238Y-93162380D01*
X258826095Y-93114761D01*
X258873714Y-93067142D01*
X258873714Y-92733809D01*
X258683238Y-92733809D01*
X259302285Y-93162380D02*
X259302285Y-92162380D01*
X259873714Y-93162380D01*
X259873714Y-92162380D01*
X260349904Y-93162380D02*
X260349904Y-92162380D01*
X260588000Y-92162380D01*
X260730857Y-92210000D01*
X260826095Y-92305238D01*
X260873714Y-92400476D01*
X260921333Y-92590952D01*
X260921333Y-92733809D01*
X260873714Y-92924285D01*
X260826095Y-93019523D01*
X260730857Y-93114761D01*
X260588000Y-93162380D01*
X260349904Y-93162380D01*
X257802285Y-90574761D02*
X257945142Y-90622380D01*
X258183238Y-90622380D01*
X258278476Y-90574761D01*
X258326095Y-90527142D01*
X258373714Y-90431904D01*
X258373714Y-90336666D01*
X258326095Y-90241428D01*
X258278476Y-90193809D01*
X258183238Y-90146190D01*
X257992761Y-90098571D01*
X257897523Y-90050952D01*
X257849904Y-90003333D01*
X257802285Y-89908095D01*
X257802285Y-89812857D01*
X257849904Y-89717619D01*
X257897523Y-89670000D01*
X257992761Y-89622380D01*
X258230857Y-89622380D01*
X258373714Y-89670000D01*
X258802285Y-90622380D02*
X258802285Y-89622380D01*
X259183238Y-89622380D01*
X259278476Y-89670000D01*
X259326095Y-89717619D01*
X259373714Y-89812857D01*
X259373714Y-89955714D01*
X259326095Y-90050952D01*
X259278476Y-90098571D01*
X259183238Y-90146190D01*
X258802285Y-90146190D01*
X259802285Y-90622380D02*
X259802285Y-89622380D01*
X260373714Y-90622380D02*
X259945142Y-90050952D01*
X260373714Y-89622380D02*
X259802285Y-90193809D01*
X261373714Y-90622380D02*
X261040380Y-90146190D01*
X260802285Y-90622380D02*
X260802285Y-89622380D01*
X261183238Y-89622380D01*
X261278476Y-89670000D01*
X261326095Y-89717619D01*
X261373714Y-89812857D01*
X261373714Y-89955714D01*
X261326095Y-90050952D01*
X261278476Y-90098571D01*
X261183238Y-90146190D01*
X260802285Y-90146190D01*
G04 #@! TO.C,J3*
X255992380Y-114633333D02*
X256706666Y-114633333D01*
X256849523Y-114680952D01*
X256944761Y-114776190D01*
X256992380Y-114919047D01*
X256992380Y-115014285D01*
X255992380Y-114252380D02*
X255992380Y-113633333D01*
X256373333Y-113966666D01*
X256373333Y-113823809D01*
X256420952Y-113728571D01*
X256468571Y-113680952D01*
X256563809Y-113633333D01*
X256801904Y-113633333D01*
X256897142Y-113680952D01*
X256944761Y-113728571D01*
X256992380Y-113823809D01*
X256992380Y-114109523D01*
X256944761Y-114204761D01*
X256897142Y-114252380D01*
X257802285Y-115974761D02*
X257945142Y-116022380D01*
X258183238Y-116022380D01*
X258278476Y-115974761D01*
X258326095Y-115927142D01*
X258373714Y-115831904D01*
X258373714Y-115736666D01*
X258326095Y-115641428D01*
X258278476Y-115593809D01*
X258183238Y-115546190D01*
X257992761Y-115498571D01*
X257897523Y-115450952D01*
X257849904Y-115403333D01*
X257802285Y-115308095D01*
X257802285Y-115212857D01*
X257849904Y-115117619D01*
X257897523Y-115070000D01*
X257992761Y-115022380D01*
X258230857Y-115022380D01*
X258373714Y-115070000D01*
X258802285Y-116022380D02*
X258802285Y-115022380D01*
X259183238Y-115022380D01*
X259278476Y-115070000D01*
X259326095Y-115117619D01*
X259373714Y-115212857D01*
X259373714Y-115355714D01*
X259326095Y-115450952D01*
X259278476Y-115498571D01*
X259183238Y-115546190D01*
X258802285Y-115546190D01*
X259802285Y-116022380D02*
X259802285Y-115022380D01*
X260373714Y-116022380D02*
X259945142Y-115450952D01*
X260373714Y-115022380D02*
X259802285Y-115593809D01*
X261373714Y-116022380D02*
X261040380Y-115546190D01*
X260802285Y-116022380D02*
X260802285Y-115022380D01*
X261183238Y-115022380D01*
X261278476Y-115070000D01*
X261326095Y-115117619D01*
X261373714Y-115212857D01*
X261373714Y-115355714D01*
X261326095Y-115450952D01*
X261278476Y-115498571D01*
X261183238Y-115546190D01*
X260802285Y-115546190D01*
X258826095Y-117610000D02*
X258730857Y-117562380D01*
X258588000Y-117562380D01*
X258445142Y-117610000D01*
X258349904Y-117705238D01*
X258302285Y-117800476D01*
X258254666Y-117990952D01*
X258254666Y-118133809D01*
X258302285Y-118324285D01*
X258349904Y-118419523D01*
X258445142Y-118514761D01*
X258588000Y-118562380D01*
X258683238Y-118562380D01*
X258826095Y-118514761D01*
X258873714Y-118467142D01*
X258873714Y-118133809D01*
X258683238Y-118133809D01*
X259302285Y-118562380D02*
X259302285Y-117562380D01*
X259873714Y-118562380D01*
X259873714Y-117562380D01*
X260349904Y-118562380D02*
X260349904Y-117562380D01*
X260588000Y-117562380D01*
X260730857Y-117610000D01*
X260826095Y-117705238D01*
X260873714Y-117800476D01*
X260921333Y-117990952D01*
X260921333Y-118133809D01*
X260873714Y-118324285D01*
X260826095Y-118419523D01*
X260730857Y-118514761D01*
X260588000Y-118562380D01*
X260349904Y-118562380D01*
X259532476Y-110942380D02*
X259199142Y-110466190D01*
X258961047Y-110942380D02*
X258961047Y-109942380D01*
X259342000Y-109942380D01*
X259437238Y-109990000D01*
X259484857Y-110037619D01*
X259532476Y-110132857D01*
X259532476Y-110275714D01*
X259484857Y-110370952D01*
X259437238Y-110418571D01*
X259342000Y-110466190D01*
X258961047Y-110466190D01*
X259961047Y-110561428D02*
X260722952Y-110561428D01*
X259532476Y-113482380D02*
X259199142Y-113006190D01*
X258961047Y-113482380D02*
X258961047Y-112482380D01*
X259342000Y-112482380D01*
X259437238Y-112530000D01*
X259484857Y-112577619D01*
X259532476Y-112672857D01*
X259532476Y-112815714D01*
X259484857Y-112910952D01*
X259437238Y-112958571D01*
X259342000Y-113006190D01*
X258961047Y-113006190D01*
X259961047Y-113101428D02*
X260722952Y-113101428D01*
X260342000Y-113482380D02*
X260342000Y-112720476D01*
G04 #@! TO.C,J5*
X255992380Y-140033333D02*
X256706666Y-140033333D01*
X256849523Y-140080952D01*
X256944761Y-140176190D01*
X256992380Y-140319047D01*
X256992380Y-140414285D01*
X255992380Y-139080952D02*
X255992380Y-139557142D01*
X256468571Y-139604761D01*
X256420952Y-139557142D01*
X256373333Y-139461904D01*
X256373333Y-139223809D01*
X256420952Y-139128571D01*
X256468571Y-139080952D01*
X256563809Y-139033333D01*
X256801904Y-139033333D01*
X256897142Y-139080952D01*
X256944761Y-139128571D01*
X256992380Y-139223809D01*
X256992380Y-139461904D01*
X256944761Y-139557142D01*
X256897142Y-139604761D01*
X259532476Y-138882380D02*
X259199142Y-138406190D01*
X258961047Y-138882380D02*
X258961047Y-137882380D01*
X259342000Y-137882380D01*
X259437238Y-137930000D01*
X259484857Y-137977619D01*
X259532476Y-138072857D01*
X259532476Y-138215714D01*
X259484857Y-138310952D01*
X259437238Y-138358571D01*
X259342000Y-138406190D01*
X258961047Y-138406190D01*
X259961047Y-138501428D02*
X260722952Y-138501428D01*
X260342000Y-138882380D02*
X260342000Y-138120476D01*
X259532476Y-136342380D02*
X259199142Y-135866190D01*
X258961047Y-136342380D02*
X258961047Y-135342380D01*
X259342000Y-135342380D01*
X259437238Y-135390000D01*
X259484857Y-135437619D01*
X259532476Y-135532857D01*
X259532476Y-135675714D01*
X259484857Y-135770952D01*
X259437238Y-135818571D01*
X259342000Y-135866190D01*
X258961047Y-135866190D01*
X259961047Y-135961428D02*
X260722952Y-135961428D01*
X258826095Y-143010000D02*
X258730857Y-142962380D01*
X258588000Y-142962380D01*
X258445142Y-143010000D01*
X258349904Y-143105238D01*
X258302285Y-143200476D01*
X258254666Y-143390952D01*
X258254666Y-143533809D01*
X258302285Y-143724285D01*
X258349904Y-143819523D01*
X258445142Y-143914761D01*
X258588000Y-143962380D01*
X258683238Y-143962380D01*
X258826095Y-143914761D01*
X258873714Y-143867142D01*
X258873714Y-143533809D01*
X258683238Y-143533809D01*
X259302285Y-143962380D02*
X259302285Y-142962380D01*
X259873714Y-143962380D01*
X259873714Y-142962380D01*
X260349904Y-143962380D02*
X260349904Y-142962380D01*
X260588000Y-142962380D01*
X260730857Y-143010000D01*
X260826095Y-143105238D01*
X260873714Y-143200476D01*
X260921333Y-143390952D01*
X260921333Y-143533809D01*
X260873714Y-143724285D01*
X260826095Y-143819523D01*
X260730857Y-143914761D01*
X260588000Y-143962380D01*
X260349904Y-143962380D01*
X257802285Y-141374761D02*
X257945142Y-141422380D01*
X258183238Y-141422380D01*
X258278476Y-141374761D01*
X258326095Y-141327142D01*
X258373714Y-141231904D01*
X258373714Y-141136666D01*
X258326095Y-141041428D01*
X258278476Y-140993809D01*
X258183238Y-140946190D01*
X257992761Y-140898571D01*
X257897523Y-140850952D01*
X257849904Y-140803333D01*
X257802285Y-140708095D01*
X257802285Y-140612857D01*
X257849904Y-140517619D01*
X257897523Y-140470000D01*
X257992761Y-140422380D01*
X258230857Y-140422380D01*
X258373714Y-140470000D01*
X258802285Y-141422380D02*
X258802285Y-140422380D01*
X259183238Y-140422380D01*
X259278476Y-140470000D01*
X259326095Y-140517619D01*
X259373714Y-140612857D01*
X259373714Y-140755714D01*
X259326095Y-140850952D01*
X259278476Y-140898571D01*
X259183238Y-140946190D01*
X258802285Y-140946190D01*
X259802285Y-141422380D02*
X259802285Y-140422380D01*
X260373714Y-141422380D02*
X259945142Y-140850952D01*
X260373714Y-140422380D02*
X259802285Y-140993809D01*
X261373714Y-141422380D02*
X261040380Y-140946190D01*
X260802285Y-141422380D02*
X260802285Y-140422380D01*
X261183238Y-140422380D01*
X261278476Y-140470000D01*
X261326095Y-140517619D01*
X261373714Y-140612857D01*
X261373714Y-140755714D01*
X261326095Y-140850952D01*
X261278476Y-140898571D01*
X261183238Y-140946190D01*
X260802285Y-140946190D01*
G04 #@! TO.C,J6*
X255992380Y-152733333D02*
X256706666Y-152733333D01*
X256849523Y-152780952D01*
X256944761Y-152876190D01*
X256992380Y-153019047D01*
X256992380Y-153114285D01*
X255992380Y-151828571D02*
X255992380Y-152019047D01*
X256040000Y-152114285D01*
X256087619Y-152161904D01*
X256230476Y-152257142D01*
X256420952Y-152304761D01*
X256801904Y-152304761D01*
X256897142Y-152257142D01*
X256944761Y-152209523D01*
X256992380Y-152114285D01*
X256992380Y-151923809D01*
X256944761Y-151828571D01*
X256897142Y-151780952D01*
X256801904Y-151733333D01*
X256563809Y-151733333D01*
X256468571Y-151780952D01*
X256420952Y-151828571D01*
X256373333Y-151923809D01*
X256373333Y-152114285D01*
X256420952Y-152209523D01*
X256468571Y-152257142D01*
X256563809Y-152304761D01*
X257802285Y-154074761D02*
X257945142Y-154122380D01*
X258183238Y-154122380D01*
X258278476Y-154074761D01*
X258326095Y-154027142D01*
X258373714Y-153931904D01*
X258373714Y-153836666D01*
X258326095Y-153741428D01*
X258278476Y-153693809D01*
X258183238Y-153646190D01*
X257992761Y-153598571D01*
X257897523Y-153550952D01*
X257849904Y-153503333D01*
X257802285Y-153408095D01*
X257802285Y-153312857D01*
X257849904Y-153217619D01*
X257897523Y-153170000D01*
X257992761Y-153122380D01*
X258230857Y-153122380D01*
X258373714Y-153170000D01*
X258802285Y-154122380D02*
X258802285Y-153122380D01*
X259183238Y-153122380D01*
X259278476Y-153170000D01*
X259326095Y-153217619D01*
X259373714Y-153312857D01*
X259373714Y-153455714D01*
X259326095Y-153550952D01*
X259278476Y-153598571D01*
X259183238Y-153646190D01*
X258802285Y-153646190D01*
X259802285Y-154122380D02*
X259802285Y-153122380D01*
X260373714Y-154122380D02*
X259945142Y-153550952D01*
X260373714Y-153122380D02*
X259802285Y-153693809D01*
X261373714Y-154122380D02*
X261040380Y-153646190D01*
X260802285Y-154122380D02*
X260802285Y-153122380D01*
X261183238Y-153122380D01*
X261278476Y-153170000D01*
X261326095Y-153217619D01*
X261373714Y-153312857D01*
X261373714Y-153455714D01*
X261326095Y-153550952D01*
X261278476Y-153598571D01*
X261183238Y-153646190D01*
X260802285Y-153646190D01*
X258826095Y-155710000D02*
X258730857Y-155662380D01*
X258588000Y-155662380D01*
X258445142Y-155710000D01*
X258349904Y-155805238D01*
X258302285Y-155900476D01*
X258254666Y-156090952D01*
X258254666Y-156233809D01*
X258302285Y-156424285D01*
X258349904Y-156519523D01*
X258445142Y-156614761D01*
X258588000Y-156662380D01*
X258683238Y-156662380D01*
X258826095Y-156614761D01*
X258873714Y-156567142D01*
X258873714Y-156233809D01*
X258683238Y-156233809D01*
X259302285Y-156662380D02*
X259302285Y-155662380D01*
X259873714Y-156662380D01*
X259873714Y-155662380D01*
X260349904Y-156662380D02*
X260349904Y-155662380D01*
X260588000Y-155662380D01*
X260730857Y-155710000D01*
X260826095Y-155805238D01*
X260873714Y-155900476D01*
X260921333Y-156090952D01*
X260921333Y-156233809D01*
X260873714Y-156424285D01*
X260826095Y-156519523D01*
X260730857Y-156614761D01*
X260588000Y-156662380D01*
X260349904Y-156662380D01*
X259532476Y-149042380D02*
X259199142Y-148566190D01*
X258961047Y-149042380D02*
X258961047Y-148042380D01*
X259342000Y-148042380D01*
X259437238Y-148090000D01*
X259484857Y-148137619D01*
X259532476Y-148232857D01*
X259532476Y-148375714D01*
X259484857Y-148470952D01*
X259437238Y-148518571D01*
X259342000Y-148566190D01*
X258961047Y-148566190D01*
X259961047Y-148661428D02*
X260722952Y-148661428D01*
X259532476Y-151582380D02*
X259199142Y-151106190D01*
X258961047Y-151582380D02*
X258961047Y-150582380D01*
X259342000Y-150582380D01*
X259437238Y-150630000D01*
X259484857Y-150677619D01*
X259532476Y-150772857D01*
X259532476Y-150915714D01*
X259484857Y-151010952D01*
X259437238Y-151058571D01*
X259342000Y-151106190D01*
X258961047Y-151106190D01*
X259961047Y-151201428D02*
X260722952Y-151201428D01*
X260342000Y-151582380D02*
X260342000Y-150820476D01*
G04 #@! TO.C,J2*
X255992380Y-101933333D02*
X256706666Y-101933333D01*
X256849523Y-101980952D01*
X256944761Y-102076190D01*
X256992380Y-102219047D01*
X256992380Y-102314285D01*
X256087619Y-101504761D02*
X256040000Y-101457142D01*
X255992380Y-101361904D01*
X255992380Y-101123809D01*
X256040000Y-101028571D01*
X256087619Y-100980952D01*
X256182857Y-100933333D01*
X256278095Y-100933333D01*
X256420952Y-100980952D01*
X256992380Y-101552380D01*
X256992380Y-100933333D01*
X259532476Y-100782380D02*
X259199142Y-100306190D01*
X258961047Y-100782380D02*
X258961047Y-99782380D01*
X259342000Y-99782380D01*
X259437238Y-99830000D01*
X259484857Y-99877619D01*
X259532476Y-99972857D01*
X259532476Y-100115714D01*
X259484857Y-100210952D01*
X259437238Y-100258571D01*
X259342000Y-100306190D01*
X258961047Y-100306190D01*
X259961047Y-100401428D02*
X260722952Y-100401428D01*
X260342000Y-100782380D02*
X260342000Y-100020476D01*
X259532476Y-98242380D02*
X259199142Y-97766190D01*
X258961047Y-98242380D02*
X258961047Y-97242380D01*
X259342000Y-97242380D01*
X259437238Y-97290000D01*
X259484857Y-97337619D01*
X259532476Y-97432857D01*
X259532476Y-97575714D01*
X259484857Y-97670952D01*
X259437238Y-97718571D01*
X259342000Y-97766190D01*
X258961047Y-97766190D01*
X259961047Y-97861428D02*
X260722952Y-97861428D01*
X258826095Y-104910000D02*
X258730857Y-104862380D01*
X258588000Y-104862380D01*
X258445142Y-104910000D01*
X258349904Y-105005238D01*
X258302285Y-105100476D01*
X258254666Y-105290952D01*
X258254666Y-105433809D01*
X258302285Y-105624285D01*
X258349904Y-105719523D01*
X258445142Y-105814761D01*
X258588000Y-105862380D01*
X258683238Y-105862380D01*
X258826095Y-105814761D01*
X258873714Y-105767142D01*
X258873714Y-105433809D01*
X258683238Y-105433809D01*
X259302285Y-105862380D02*
X259302285Y-104862380D01*
X259873714Y-105862380D01*
X259873714Y-104862380D01*
X260349904Y-105862380D02*
X260349904Y-104862380D01*
X260588000Y-104862380D01*
X260730857Y-104910000D01*
X260826095Y-105005238D01*
X260873714Y-105100476D01*
X260921333Y-105290952D01*
X260921333Y-105433809D01*
X260873714Y-105624285D01*
X260826095Y-105719523D01*
X260730857Y-105814761D01*
X260588000Y-105862380D01*
X260349904Y-105862380D01*
X257802285Y-103274761D02*
X257945142Y-103322380D01*
X258183238Y-103322380D01*
X258278476Y-103274761D01*
X258326095Y-103227142D01*
X258373714Y-103131904D01*
X258373714Y-103036666D01*
X258326095Y-102941428D01*
X258278476Y-102893809D01*
X258183238Y-102846190D01*
X257992761Y-102798571D01*
X257897523Y-102750952D01*
X257849904Y-102703333D01*
X257802285Y-102608095D01*
X257802285Y-102512857D01*
X257849904Y-102417619D01*
X257897523Y-102370000D01*
X257992761Y-102322380D01*
X258230857Y-102322380D01*
X258373714Y-102370000D01*
X258802285Y-103322380D02*
X258802285Y-102322380D01*
X259183238Y-102322380D01*
X259278476Y-102370000D01*
X259326095Y-102417619D01*
X259373714Y-102512857D01*
X259373714Y-102655714D01*
X259326095Y-102750952D01*
X259278476Y-102798571D01*
X259183238Y-102846190D01*
X258802285Y-102846190D01*
X259802285Y-103322380D02*
X259802285Y-102322380D01*
X260373714Y-103322380D02*
X259945142Y-102750952D01*
X260373714Y-102322380D02*
X259802285Y-102893809D01*
X261373714Y-103322380D02*
X261040380Y-102846190D01*
X260802285Y-103322380D02*
X260802285Y-102322380D01*
X261183238Y-102322380D01*
X261278476Y-102370000D01*
X261326095Y-102417619D01*
X261373714Y-102512857D01*
X261373714Y-102655714D01*
X261326095Y-102750952D01*
X261278476Y-102798571D01*
X261183238Y-102846190D01*
X260802285Y-102846190D01*
G04 #@! TO.C,U1*
X174712380Y-140461904D02*
X175521904Y-140461904D01*
X175617142Y-140414285D01*
X175664761Y-140366666D01*
X175712380Y-140271428D01*
X175712380Y-140080952D01*
X175664761Y-139985714D01*
X175617142Y-139938095D01*
X175521904Y-139890476D01*
X174712380Y-139890476D01*
X175712380Y-138890476D02*
X175712380Y-139461904D01*
X175712380Y-139176190D02*
X174712380Y-139176190D01*
X174855238Y-139271428D01*
X174950476Y-139366666D01*
X174998095Y-139461904D01*
G04 #@! TD*
M02*
