G04 #@! TF.GenerationSoftware,KiCad,Pcbnew,(5.0.1)-3*
G04 #@! TF.CreationDate,2019-01-10T16:40:56-07:00*
G04 #@! TF.ProjectId,MCP4151-Pin-Swap,4D4350343135312D50696E2D53776170,rev?*
G04 #@! TF.SameCoordinates,Original*
G04 #@! TF.FileFunction,Copper,L2,Bot,Signal*
G04 #@! TF.FilePolarity,Positive*
%FSLAX46Y46*%
G04 Gerber Fmt 4.6, Leading zero omitted, Abs format (unit mm)*
G04 Created by KiCad (PCBNEW (5.0.1)-3) date 2019-01-10 4:40:56 PM*
%MOMM*%
%LPD*%
G01*
G04 APERTURE LIST*
G04 #@! TA.AperFunction,ComponentPad*
%ADD10O,1.700000X1.700000*%
G04 #@! TD*
G04 #@! TA.AperFunction,ComponentPad*
%ADD11R,1.700000X1.700000*%
G04 #@! TD*
G04 #@! TA.AperFunction,SMDPad,CuDef*
%ADD12R,0.600000X1.550000*%
G04 #@! TD*
G04 #@! TA.AperFunction,ViaPad*
%ADD13C,0.800000*%
G04 #@! TD*
G04 #@! TA.AperFunction,Conductor*
%ADD14C,0.250000*%
G04 #@! TD*
G04 APERTURE END LIST*
D10*
G04 #@! TO.P,J2,4*
G04 #@! TO.N,Net-(J2-Pad4)*
X228600000Y-132080000D03*
G04 #@! TO.P,J2,3*
G04 #@! TO.N,Net-(J2-Pad3)*
X228600000Y-134620000D03*
G04 #@! TO.P,J2,2*
G04 #@! TO.N,Net-(J2-Pad2)*
X228600000Y-137160000D03*
D11*
G04 #@! TO.P,J2,1*
G04 #@! TO.N,Net-(J2-Pad1)*
X228600000Y-139700000D03*
G04 #@! TD*
G04 #@! TO.P,J1,1*
G04 #@! TO.N,Net-(J1-Pad1)*
X220980000Y-139700000D03*
D10*
G04 #@! TO.P,J1,2*
G04 #@! TO.N,Net-(J1-Pad2)*
X220980000Y-137160000D03*
G04 #@! TO.P,J1,3*
G04 #@! TO.N,Net-(J1-Pad3)*
X220980000Y-134620000D03*
G04 #@! TO.P,J1,4*
G04 #@! TO.N,Net-(J1-Pad4)*
X220980000Y-132080000D03*
G04 #@! TD*
D12*
G04 #@! TO.P,U1,1*
G04 #@! TO.N,Net-(J1-Pad4)*
X226695000Y-138590000D03*
G04 #@! TO.P,U1,2*
G04 #@! TO.N,Net-(J1-Pad3)*
X225425000Y-138590000D03*
G04 #@! TO.P,U1,3*
G04 #@! TO.N,Net-(J1-Pad2)*
X224155000Y-138590000D03*
G04 #@! TO.P,U1,4*
G04 #@! TO.N,Net-(J1-Pad1)*
X222885000Y-138590000D03*
G04 #@! TO.P,U1,5*
G04 #@! TO.N,Net-(J2-Pad4)*
X222885000Y-133190000D03*
G04 #@! TO.P,U1,6*
G04 #@! TO.N,Net-(J2-Pad3)*
X224155000Y-133190000D03*
G04 #@! TO.P,U1,7*
G04 #@! TO.N,Net-(J2-Pad2)*
X225425000Y-133190000D03*
G04 #@! TO.P,U1,8*
G04 #@! TO.N,Net-(J2-Pad1)*
X226695000Y-133190000D03*
G04 #@! TD*
D13*
G04 #@! TO.N,Net-(J2-Pad2)*
X225552000Y-134874000D03*
G04 #@! TD*
D14*
G04 #@! TO.N,Net-(J1-Pad4)*
X221829999Y-132929999D02*
X220980000Y-132080000D01*
X221829999Y-133691999D02*
X221829999Y-132929999D01*
X222428001Y-134290001D02*
X221829999Y-133691999D01*
X223420001Y-134290001D02*
X222428001Y-134290001D01*
X226695000Y-137565000D02*
X223420001Y-134290001D01*
X226695000Y-138590000D02*
X226695000Y-137565000D01*
G04 #@! TO.N,Net-(J1-Pad3)*
X221829999Y-135469999D02*
X220980000Y-134620000D01*
X222779999Y-135469999D02*
X221829999Y-135469999D01*
X225425000Y-138115000D02*
X222779999Y-135469999D01*
X225425000Y-138590000D02*
X225425000Y-138115000D01*
G04 #@! TO.N,Net-(J1-Pad2)*
X222182081Y-137160000D02*
X220980000Y-137160000D01*
X223200000Y-137160000D02*
X222182081Y-137160000D01*
X224155000Y-138115000D02*
X223200000Y-137160000D01*
X224155000Y-138590000D02*
X224155000Y-138115000D01*
G04 #@! TO.N,Net-(J1-Pad1)*
X222080000Y-139700000D02*
X220980000Y-139700000D01*
X222250000Y-139700000D02*
X222080000Y-139700000D01*
X222885000Y-139065000D02*
X222250000Y-139700000D01*
X222885000Y-138590000D02*
X222885000Y-139065000D01*
G04 #@! TO.N,Net-(J2-Pad4)*
X227750001Y-131230001D02*
X228600000Y-132080000D01*
X224369999Y-131230001D02*
X227750001Y-131230001D01*
X222885000Y-132715000D02*
X224369999Y-131230001D01*
X222885000Y-133190000D02*
X222885000Y-132715000D01*
G04 #@! TO.N,Net-(J2-Pad3)*
X224155000Y-133190000D02*
X224155000Y-133665000D01*
X227750001Y-133770001D02*
X228600000Y-134620000D01*
X227424999Y-133444999D02*
X227750001Y-133770001D01*
X227424999Y-132259997D02*
X227424999Y-133444999D01*
X227255001Y-132089999D02*
X227424999Y-132259997D01*
X224780001Y-132089999D02*
X227255001Y-132089999D01*
X224155000Y-132715000D02*
X224780001Y-132089999D01*
X224155000Y-133190000D02*
X224155000Y-132715000D01*
G04 #@! TO.N,Net-(J2-Pad2)*
X225425000Y-133190000D02*
X225425000Y-133665000D01*
X225425000Y-133190000D02*
X225425000Y-134747000D01*
X225425000Y-134747000D02*
X225552000Y-134874000D01*
G04 #@! TO.N,Net-(J2-Pad1)*
X226695000Y-133190000D02*
X226695000Y-132715000D01*
X228600000Y-138833590D02*
X228600000Y-139700000D01*
X226695000Y-136928590D02*
X228600000Y-138833590D01*
X226695000Y-133190000D02*
X226695000Y-136928590D01*
G04 #@! TD*
M02*
