G04 #@! TF.GenerationSoftware,KiCad,Pcbnew,(5.0.1)-3*
G04 #@! TF.CreationDate,2019-01-10T16:40:56-07:00*
G04 #@! TF.ProjectId,MCP4151-Pin-Swap,4D4350343135312D50696E2D53776170,rev?*
G04 #@! TF.SameCoordinates,Original*
G04 #@! TF.FileFunction,Legend,Top*
G04 #@! TF.FilePolarity,Positive*
%FSLAX46Y46*%
G04 Gerber Fmt 4.6, Leading zero omitted, Abs format (unit mm)*
G04 Created by KiCad (PCBNEW (5.0.1)-3) date 2019-01-10 4:40:56 PM*
%MOMM*%
%LPD*%
G01*
G04 APERTURE LIST*
%ADD10C,0.250000*%
%ADD11C,0.200000*%
%ADD12C,0.300000*%
%ADD13C,0.120000*%
%ADD14C,0.150000*%
G04 APERTURE END LIST*
D10*
X225242380Y-139509095D02*
X224242380Y-139509095D01*
X224956666Y-139175761D01*
X224242380Y-138842428D01*
X225242380Y-138842428D01*
X225147142Y-137794809D02*
X225194761Y-137842428D01*
X225242380Y-137985285D01*
X225242380Y-138080523D01*
X225194761Y-138223380D01*
X225099523Y-138318619D01*
X225004285Y-138366238D01*
X224813809Y-138413857D01*
X224670952Y-138413857D01*
X224480476Y-138366238D01*
X224385238Y-138318619D01*
X224290000Y-138223380D01*
X224242380Y-138080523D01*
X224242380Y-137985285D01*
X224290000Y-137842428D01*
X224337619Y-137794809D01*
X225242380Y-137366238D02*
X224242380Y-137366238D01*
X224242380Y-136985285D01*
X224290000Y-136890047D01*
X224337619Y-136842428D01*
X224432857Y-136794809D01*
X224575714Y-136794809D01*
X224670952Y-136842428D01*
X224718571Y-136890047D01*
X224766190Y-136985285D01*
X224766190Y-137366238D01*
X224575714Y-135937666D02*
X225242380Y-135937666D01*
X224194761Y-136175761D02*
X224909047Y-136413857D01*
X224909047Y-135794809D01*
X225242380Y-134890047D02*
X225242380Y-135461476D01*
X225242380Y-135175761D02*
X224242380Y-135175761D01*
X224385238Y-135271000D01*
X224480476Y-135366238D01*
X224528095Y-135461476D01*
X224242380Y-133985285D02*
X224242380Y-134461476D01*
X224718571Y-134509095D01*
X224670952Y-134461476D01*
X224623333Y-134366238D01*
X224623333Y-134128142D01*
X224670952Y-134032904D01*
X224718571Y-133985285D01*
X224813809Y-133937666D01*
X225051904Y-133937666D01*
X225147142Y-133985285D01*
X225194761Y-134032904D01*
X225242380Y-134128142D01*
X225242380Y-134366238D01*
X225194761Y-134461476D01*
X225147142Y-134509095D01*
X225242380Y-132985285D02*
X225242380Y-133556714D01*
X225242380Y-133271000D02*
X224242380Y-133271000D01*
X224385238Y-133366238D01*
X224480476Y-133461476D01*
X224528095Y-133556714D01*
D11*
X225933000Y-130302000D02*
G75*
G02X223647000Y-130302000I-1143000J0D01*
G01*
D12*
X226171142Y-139775428D02*
X226028285Y-139704000D01*
X225956857Y-139632571D01*
X225885428Y-139489714D01*
X225885428Y-139418285D01*
X225956857Y-139275428D01*
X226028285Y-139204000D01*
X226171142Y-139132571D01*
X226456857Y-139132571D01*
X226599714Y-139204000D01*
X226671142Y-139275428D01*
X226742571Y-139418285D01*
X226742571Y-139489714D01*
X226671142Y-139632571D01*
X226599714Y-139704000D01*
X226456857Y-139775428D01*
X226171142Y-139775428D01*
X226028285Y-139846857D01*
X225956857Y-139918285D01*
X225885428Y-140061142D01*
X225885428Y-140346857D01*
X225956857Y-140489714D01*
X226028285Y-140561142D01*
X226171142Y-140632571D01*
X226456857Y-140632571D01*
X226599714Y-140561142D01*
X226671142Y-140489714D01*
X226742571Y-140346857D01*
X226742571Y-140061142D01*
X226671142Y-139918285D01*
X226599714Y-139846857D01*
X226456857Y-139775428D01*
X225814000Y-136465571D02*
X226814000Y-136465571D01*
X226171142Y-137965571D01*
X226599714Y-133798571D02*
X226314000Y-133798571D01*
X226171142Y-133870000D01*
X226099714Y-133941428D01*
X225956857Y-134155714D01*
X225885428Y-134441428D01*
X225885428Y-135012857D01*
X225956857Y-135155714D01*
X226028285Y-135227142D01*
X226171142Y-135298571D01*
X226456857Y-135298571D01*
X226599714Y-135227142D01*
X226671142Y-135155714D01*
X226742571Y-135012857D01*
X226742571Y-134655714D01*
X226671142Y-134512857D01*
X226599714Y-134441428D01*
X226456857Y-134370000D01*
X226171142Y-134370000D01*
X226028285Y-134441428D01*
X225956857Y-134512857D01*
X225885428Y-134655714D01*
X226671142Y-131258571D02*
X225956857Y-131258571D01*
X225885428Y-131972857D01*
X225956857Y-131901428D01*
X226099714Y-131830000D01*
X226456857Y-131830000D01*
X226599714Y-131901428D01*
X226671142Y-131972857D01*
X226742571Y-132115714D01*
X226742571Y-132472857D01*
X226671142Y-132615714D01*
X226599714Y-132687142D01*
X226456857Y-132758571D01*
X226099714Y-132758571D01*
X225956857Y-132687142D01*
X225885428Y-132615714D01*
X223551714Y-139632571D02*
X223551714Y-140632571D01*
X223194571Y-139061142D02*
X222837428Y-140132571D01*
X223766000Y-140132571D01*
X222766000Y-136465571D02*
X223694571Y-136465571D01*
X223194571Y-137037000D01*
X223408857Y-137037000D01*
X223551714Y-137108428D01*
X223623142Y-137179857D01*
X223694571Y-137322714D01*
X223694571Y-137679857D01*
X223623142Y-137822714D01*
X223551714Y-137894142D01*
X223408857Y-137965571D01*
X222980285Y-137965571D01*
X222837428Y-137894142D01*
X222766000Y-137822714D01*
X222837428Y-133941428D02*
X222908857Y-133870000D01*
X223051714Y-133798571D01*
X223408857Y-133798571D01*
X223551714Y-133870000D01*
X223623142Y-133941428D01*
X223694571Y-134084285D01*
X223694571Y-134227142D01*
X223623142Y-134441428D01*
X222766000Y-135298571D01*
X223694571Y-135298571D01*
X223694571Y-132758571D02*
X222837428Y-132758571D01*
X223266000Y-132758571D02*
X223266000Y-131258571D01*
X223123142Y-131472857D01*
X222980285Y-131615714D01*
X222837428Y-131687142D01*
D13*
G04 #@! TO.C,J2*
X229930000Y-141030000D02*
X228600000Y-141030000D01*
X229930000Y-139700000D02*
X229930000Y-141030000D01*
X229930000Y-138430000D02*
X227270000Y-138430000D01*
X227270000Y-138430000D02*
X227270000Y-130750000D01*
X229930000Y-138430000D02*
X229930000Y-130750000D01*
X229930000Y-130750000D02*
X227270000Y-130750000D01*
G04 #@! TO.C,J1*
X222310000Y-130750000D02*
X219650000Y-130750000D01*
X222310000Y-138430000D02*
X222310000Y-130750000D01*
X219650000Y-138430000D02*
X219650000Y-130750000D01*
X222310000Y-138430000D02*
X219650000Y-138430000D01*
X222310000Y-139700000D02*
X222310000Y-141030000D01*
X222310000Y-141030000D02*
X220980000Y-141030000D01*
G04 #@! TO.C,U1*
D14*
X227742380Y-136651904D02*
X228551904Y-136651904D01*
X228647142Y-136604285D01*
X228694761Y-136556666D01*
X228742380Y-136461428D01*
X228742380Y-136270952D01*
X228694761Y-136175714D01*
X228647142Y-136128095D01*
X228551904Y-136080476D01*
X227742380Y-136080476D01*
X228742380Y-135080476D02*
X228742380Y-135651904D01*
X228742380Y-135366190D02*
X227742380Y-135366190D01*
X227885238Y-135461428D01*
X227980476Y-135556666D01*
X228028095Y-135651904D01*
G04 #@! TD*
M02*
